<?xml version="1.0" encoding="utf-8"?>
<!-- Generator: Adobe Illustrator 25.4.1, SVG Export Plug-In . SVG Version: 6.00 Build 0)  -->
<svg version="1.0" id="Layer_1" xmlns="http://www.w3.org/2000/svg" xmlns:xlink="http://www.w3.org/1999/xlink" x="0px" y="0px"
	 viewBox="0 0 70 40" style="enable-background:new 0 0 70 40;" xml:space="preserve">
<style type="text/css">
	.st0{fill-rule:evenodd;clip-rule:evenodd;fill:#232F3E;}
	.st1{fill-rule:evenodd;clip-rule:evenodd;fill:#FF9900;}
</style>
<path class="st0" d="M5.7,18.9c0,0.5,0,0.9-0.2,1.4c-0.2,0.4-0.5,0.6-0.9,0.6c-0.5,0-0.8-0.4-0.8-1c0-1.1,1-1.3,2-1.3L5.7,18.9
	L5.7,18.9z M7,22.1c-0.1,0.1-0.2,0.1-0.3,0c-0.3-0.2-0.6-0.5-0.8-0.9c-0.7,0.7-1.2,1-2.2,1c-1.1,0-2-0.7-2-2c0-0.9,0.5-1.8,1.4-2.1
	c0.7-0.3,1.7-0.4,2.5-0.5v-0.2c0-0.3,0-0.7-0.2-1c-0.2-0.2-0.5-0.4-0.7-0.3c-0.5,0-0.9,0.3-1.1,0.8c0,0.1-0.1,0.2-0.2,0.2L2.2,17
	C2.1,17,2,16.8,2,16.7c0,0,0,0,0,0c0.3-1.5,1.7-2,2.9-2c0.6,0,1.5,0.2,2,0.7c0.6,0.6,0.6,1.4,0.6,2.3v2c0,0.6,0.3,0.9,0.5,1.2
	c0.1,0.1,0.1,0.3,0,0.3C7.8,21.4,7.3,21.9,7,22.1L7,22.1z"/>
<path class="st0" d="M10.6,22H9.3c-0.1,0-0.2-0.1-0.2-0.2V15c0-0.1,0.1-0.2,0.3-0.2h1.2c0.1,0,0.2,0.1,0.2,0.2v0.9h0
	c0.3-0.9,0.9-1.2,1.7-1.2s1.3,0.4,1.7,1.2c0.4-1,1.5-1.5,2.5-1.1c0.3,0.1,0.6,0.3,0.8,0.6c0.4,0.6,0.3,1.4,0.3,2.1v4.3
	c0,0.1-0.1,0.2-0.3,0.2c0,0,0,0,0,0h-1.3c-0.1,0-0.2-0.1-0.2-0.2v-3.6c0-0.4,0-0.8,0-1.3c-0.1-0.5-0.4-0.6-0.8-0.6
	c-0.3,0-0.7,0.2-0.8,0.6c-0.1,0.3-0.1,0.9-0.1,1.3v3.6c0,0.1-0.1,0.2-0.3,0.2h-1.3c-0.1,0-0.2-0.1-0.2-0.2v-3.6
	c0-0.8,0.1-1.9-0.8-1.9s-0.9,1.1-0.9,1.9v3.6C10.9,21.9,10.7,22,10.6,22C10.6,22,10.6,22,10.6,22"/>
<path class="st0" d="M22.7,20.3c-0.2,0.4-0.5,0.6-0.9,0.6c-0.5,0-0.8-0.4-0.8-1c0-1.1,1-1.3,2-1.3v0.3
	C22.9,19.4,22.9,19.8,22.7,20.3z M25.3,20.9c-0.2-0.3-0.5-0.6-0.5-1.2v-2.1c0-0.9,0.1-1.7-0.6-2.3c-0.5-0.5-1.3-0.7-2-0.7
	c-1.3,0-2.6,0.5-2.9,2c0,0.1,0.1,0.2,0.2,0.3c0,0,0,0,0,0l1.3,0.1c0.1,0,0.2-0.1,0.2-0.2c0.1-0.5,0.6-0.8,1.1-0.8
	c0.3,0,0.6,0.1,0.7,0.3c0.2,0.3,0.2,0.6,0.2,1v0.2c-0.8,0.1-1.8,0.1-2.5,0.5c-0.9,0.3-1.4,1.2-1.4,2.1c0,1.4,0.9,2,2,2
	c0.9,0,1.4-0.2,2.2-1c0.2,0.3,0.5,0.6,0.8,0.9c0.1,0.1,0.2,0,0.3,0c0.3-0.2,0.7-0.6,1-0.9C25.4,21.1,25.3,21,25.3,20.9z"/>
<path class="st0" d="M26.4,16v-1c0-0.1,0.1-0.2,0.2-0.2c0,0,0,0,0,0h4.3c0.1,0,0.2,0.1,0.2,0.2c0,0,0,0,0,0v0.8
	c0,0.1-0.1,0.3-0.3,0.6l-2.2,3.2c0.9,0,1.7,0.1,2.5,0.5c0.1,0.1,0.2,0.2,0.2,0.4v1c0,0.1-0.2,0.3-0.3,0.2c-1.4-0.7-3.1-0.7-4.6,0
	c-0.2,0.1-0.3-0.1-0.3-0.2v-1c0-0.2,0-0.5,0.2-0.7l2.6-3.7h-2.3C26.5,16.2,26.4,16.1,26.4,16C26.4,16,26.4,16,26.4,16"/>
<path class="st0" d="M34.9,14.7c2,0,3,1.7,3,3.8c0,2.1-1.2,3.7-3,3.7c-1.9,0-3-1.7-3-3.8S33,14.7,34.9,14.7L34.9,14.7z M34.9,16
	c-1,0-1,1.3-1,2.1c0,0.8,0,2.6,1,2.6s1.1-1.4,1.1-2.3c0-0.6,0-1.2-0.2-1.8C35.7,16.3,35.3,16,34.9,16L34.9,16z"/>
<path class="st0" d="M40.5,22h-1.3c-0.1,0-0.2-0.1-0.2-0.2V15c0-0.1,0.1-0.2,0.3-0.2h1.2c0.1,0,0.2,0.1,0.2,0.2v1h0
	c0.4-0.9,0.9-1.4,1.8-1.4c0.6,0,1.2,0.3,1.5,0.8c0.3,0.5,0.3,1.4,0.3,2.1v4.2c0,0.1-0.1,0.2-0.3,0.2h-1.3c-0.1,0-0.2-0.1-0.2-0.2
	v-3.7c0-0.7,0.1-1.8-0.8-1.8c-0.3,0-0.6,0.2-0.8,0.5c-0.2,0.4-0.2,0.8-0.2,1.3v3.6C40.7,21.9,40.6,22,40.5,22"/>
<path class="st0" d="M49.2,15.6c0.3-0.3,0.7-0.5,1.1-0.7c0.4-0.2,0.8-0.2,1.2-0.2c0.4,0,0.8,0.1,1.2,0.2c0.4,0.2,0.7,0.4,0.9,0.7
	c0.3,0.3,0.5,0.7,0.6,1.1c0.1,0.5,0.2,1,0.2,1.5c0,0.5-0.1,1-0.2,1.5c-0.1,0.4-0.3,0.8-0.6,1.2c-0.3,0.3-0.6,0.6-0.9,0.8
	c-0.4,0.2-0.8,0.3-1.2,0.3c-0.8,0-1.6-0.3-2.1-0.8v3.2c0,0.1-0.1,0.3-0.2,0.3c0,0,0,0-0.1,0h-0.8c-0.1,0-0.3-0.1-0.3-0.2
	c0,0,0,0,0-0.1v-9.3c0-0.1,0.1-0.3,0.2-0.3c0,0,0,0,0.1,0h0.6c0.2,0,0.3,0.1,0.3,0.3c0,0,0,0,0,0L49.2,15.6z M51.2,15.8
	c-0.7,0-1.3,0.2-1.8,0.6v3.8c0.5,0.4,1.2,0.6,1.8,0.7c1.3,0,1.9-0.9,1.9-2.6C53,16.7,52.4,15.8,51.2,15.8L51.2,15.8z"/>
<path class="st0" d="M56.3,16.1l-0.1,0c0,0-0.1,0-0.1,0c-0.1,0-0.2-0.1-0.2-0.2v-0.4c0-0.1,0-0.2,0.1-0.3c0.1-0.1,0.1-0.1,0.2-0.1
	c0.4-0.1,0.7-0.2,1.1-0.3c0.4-0.1,0.9-0.1,1.3-0.1c0.9,0,1.5,0.2,1.9,0.5c0.4,0.4,0.6,0.9,0.6,1.7v4.7c0,0.1-0.1,0.3-0.2,0.3
	c0,0,0,0-0.1,0h-0.6c-0.2,0-0.3-0.1-0.3-0.2c0,0,0,0,0,0l-0.1-0.5c-0.3,0.3-0.7,0.5-1.1,0.7c-0.4,0.2-0.8,0.2-1.2,0.2
	c-0.6,0-1.1-0.2-1.6-0.6c-0.8-0.9-0.8-2.3,0.1-3.1c0,0,0,0,0,0c0.5-0.4,1.1-0.6,1.9-0.6c0.6,0,1.2,0.1,1.7,0.2v-0.9
	c0-0.5-0.1-0.8-0.3-1c-0.2-0.2-0.6-0.3-1.2-0.3C57.6,15.8,56.9,15.9,56.3,16.1z M57.9,21.1c0.3,0,0.6-0.1,1-0.2
	c0.3-0.1,0.7-0.3,1-0.5V19c-0.2-0.1-0.5-0.1-0.7-0.1c-0.2,0-0.5,0-0.7,0c-1,0-1.6,0.4-1.6,1.2c0,0.3,0.1,0.6,0.3,0.8
	C57.3,21,57.6,21.1,57.9,21.1L57.9,21.1z"/>
<path class="st0" d="M65.6,23.1c-0.2,0.5-0.5,1-0.9,1.4c-0.4,0.3-0.8,0.4-1.3,0.4c-0.3,0-0.5,0-0.8-0.1c-0.1,0-0.2-0.1-0.2-0.1
	c-0.1-0.1-0.1-0.2-0.1-0.3v-0.4c0-0.2,0.1-0.3,0.2-0.3c0.1,0,0.1,0,0.2,0c0.1,0,0.2,0,0.4,0c0.3,0,0.6-0.1,0.8-0.2
	c0.2-0.3,0.4-0.6,0.5-0.9l0.3-0.7l-2.7-6.6C62,15.3,62,15.2,62,15.1c0-0.1,0.1-0.2,0.2-0.2H63c0.1,0,0.2,0,0.3,0.1
	c0.1,0.1,0.1,0.2,0.2,0.3l1.9,5.3l1.9-5.3c0-0.1,0.1-0.2,0.2-0.3c0.1-0.1,0.2-0.1,0.3-0.1h0.8c0.1,0,0.2,0.1,0.2,0.2
	c0,0.1,0,0.2-0.1,0.3L65.6,23.1"/>
<path class="st1" d="M29.2,23.5c0.3,0.4-0.3,2.1-0.6,2.8c-0.1,0.2,0.1,0.3,0.3,0.1c1.3-1.1,1.7-3.4,1.4-3.8c-0.3-0.3-2.6-0.6-4,0.4
	c-0.2,0.2-0.2,0.4,0.1,0.3C27.1,23.3,28.9,23.1,29.2,23.5 M28.2,24.7c-2.5,1.8-6.1,2.8-9.1,2.8c-0.5,0-1,0-1.5-0.1s-1-0.1-1.5-0.2
	c-0.5-0.1-1-0.2-1.5-0.3c-0.5-0.1-1-0.3-1.4-0.5c-0.5-0.2-0.9-0.4-1.4-0.6c-0.5-0.2-0.9-0.5-1.3-0.7c-0.4-0.3-0.9-0.6-1.3-0.9
	c-0.4-0.3-0.8-0.6-1.2-1c-0.2-0.2,0-0.5,0.3-0.3c3.4,1.9,7.2,3,11.2,3c2.9,0,5.8-0.6,8.5-1.7C28.2,23.9,28.6,24.4,28.2,24.7"/>
</svg>
