<?xml version="1.0" encoding="utf-8"?>
<!-- Generator: Adobe Illustrator 25.4.1, SVG Export Plug-In . SVG Version: 6.00 Build 0)  -->
<svg version="1.0" id="Layer_1" xmlns="http://www.w3.org/2000/svg" xmlns:xlink="http://www.w3.org/1999/xlink" x="0px" y="0px"
	 viewBox="0 0 70 40" style="enable-background:new 0 0 70 40;" xml:space="preserve">
<style type="text/css">
	.st0{fill:#232F3E;}
</style>
<path class="st0" d="M12.3,15.3c0.2,0,0.3-0.2,0.3-0.3v-1.2c0-0.2-0.2-0.3-0.3-0.3H3.7c-0.2,0-0.3,0.2-0.3,0.3v1.3
	c0,0.2,0.2,0.3,0.3,0.3h2.5c0.8,0,1.4,0.3,1.8,0.8H3.7c-0.2,0-0.3,0.2-0.3,0.3v1.2c0,0.2,0.2,0.3,0.3,0.3h4.6c-0.2,1-1,1.7-2.2,1.7
	H3.7c-0.2,0-0.3,0.2-0.3,0.3v1.5c0,0.1,0,0.2,0.1,0.3l4.8,4.4c0.1,0.1,0.1,0.1,0.2,0.1h2.4c0.3,0,0.5-0.4,0.2-0.6l-4.4-4
	c2.2-0.1,3.8-1.5,4-3.7h1.5c0.2,0,0.3-0.2,0.3-0.3v-1.2c0-0.2-0.2-0.3-0.3-0.3h-1.7c-0.1-0.3-0.2-0.6-0.4-0.9H12.3z"/>
<g>
	<g>
		<path d="M21.8,16.6l0.9,0.5c-0.3,0.4-0.6,0.7-1,0.9c-0.4,0.2-0.9,0.3-1.4,0.3c-0.6,0-1.1-0.1-1.5-0.4c-0.5-0.3-0.8-0.7-1.1-1.1
			c-0.3-0.5-0.4-1-0.4-1.6c0-0.4,0.1-0.9,0.2-1.2c0.2-0.4,0.4-0.7,0.6-1c0.3-0.3,0.6-0.5,1-0.7c0.4-0.2,0.8-0.2,1.2-0.2
			c0.5,0,0.9,0.1,1.4,0.3c0.4,0.2,0.8,0.5,1,0.9l-0.9,0.5c-0.2-0.2-0.4-0.4-0.7-0.5c-0.3-0.1-0.5-0.2-0.8-0.2c-0.4,0-0.7,0.1-1,0.3
			c-0.3,0.2-0.5,0.5-0.7,0.8c-0.2,0.3-0.3,0.7-0.3,1.1c0,0.4,0.1,0.7,0.3,1.1c0.2,0.3,0.4,0.6,0.7,0.8c0.3,0.2,0.6,0.3,1,0.3
			c0.3,0,0.6-0.1,0.8-0.2C21.4,17,21.6,16.9,21.8,16.6z"/>
		<path d="M28.6,12.2h1v6h-1l0-1c-0.2,0.3-0.4,0.6-0.8,0.8s-0.7,0.3-1.2,0.3c-0.4,0-0.9-0.1-1.2-0.2c-0.4-0.2-0.7-0.4-1-0.7
			s-0.5-0.6-0.7-1c-0.2-0.4-0.2-0.8-0.2-1.2c0-0.4,0.1-0.8,0.2-1.2c0.2-0.4,0.4-0.7,0.7-1s0.6-0.5,1-0.7c0.4-0.2,0.8-0.2,1.2-0.2
			c0.5,0,0.9,0.1,1.2,0.3s0.6,0.5,0.9,0.9L28.6,12.2z M26.6,17.4c0.4,0,0.7-0.1,1-0.3c0.3-0.2,0.5-0.5,0.7-0.8s0.2-0.7,0.2-1.1
			c0-0.4-0.1-0.8-0.2-1.1c-0.2-0.3-0.4-0.6-0.7-0.8c-0.3-0.2-0.6-0.3-1-0.3c-0.4,0-0.8,0.1-1.1,0.3c-0.3,0.2-0.6,0.5-0.8,0.8
			s-0.3,0.7-0.3,1.1c0,0.4,0.1,0.8,0.3,1.1c0.2,0.3,0.5,0.6,0.8,0.8C25.8,17.3,26.2,17.4,26.6,17.4z"/>
		<path d="M32.6,18.3c-0.3,0-0.6-0.1-0.9-0.2c-0.3-0.1-0.6-0.3-0.8-0.4c-0.2-0.2-0.4-0.4-0.5-0.7l0.9-0.4c0.1,0.1,0.2,0.3,0.3,0.4
			s0.3,0.2,0.5,0.3s0.4,0.1,0.6,0.1c0.2,0,0.4,0,0.6-0.1c0.2-0.1,0.3-0.2,0.5-0.3s0.2-0.3,0.2-0.5c0-0.2-0.1-0.4-0.2-0.5
			c-0.1-0.1-0.3-0.2-0.5-0.3s-0.4-0.1-0.6-0.2c-0.4-0.1-0.8-0.2-1.1-0.4s-0.6-0.3-0.8-0.6s-0.3-0.5-0.3-0.9c0-0.4,0.1-0.7,0.3-1
			s0.5-0.5,0.8-0.6s0.7-0.2,1.1-0.2c0.5,0,0.9,0.1,1.3,0.3c0.4,0.2,0.7,0.5,0.9,0.8l-0.8,0.5c-0.1-0.1-0.2-0.3-0.3-0.4
			c-0.1-0.1-0.3-0.2-0.5-0.3c-0.2-0.1-0.4-0.1-0.6-0.1c-0.2,0-0.4,0-0.7,0.1c-0.2,0.1-0.4,0.2-0.5,0.3s-0.2,0.3-0.2,0.5
			c0,0.2,0.1,0.4,0.2,0.5c0.1,0.1,0.3,0.2,0.5,0.2c0.2,0.1,0.4,0.1,0.7,0.2c0.4,0.1,0.7,0.2,1,0.4c0.3,0.2,0.6,0.3,0.8,0.6
			c0.2,0.2,0.3,0.5,0.3,0.8c0,0.4-0.1,0.7-0.3,1c-0.2,0.3-0.5,0.5-0.9,0.6C33.4,18.3,33,18.4,32.6,18.3z"/>
		<path d="M41.3,14.5v3.7h-1v-3.5c0-0.3-0.1-0.6-0.2-0.8s-0.3-0.4-0.6-0.6c-0.2-0.1-0.5-0.2-0.8-0.2c-0.3,0-0.6,0.1-0.8,0.2
			c-0.2,0.1-0.4,0.3-0.6,0.6C37,14.1,37,14.4,37,14.7v3.5h-1v-9h1V13c0.2-0.3,0.5-0.5,0.8-0.7s0.7-0.2,1.1-0.2
			c0.4,0,0.9,0.1,1.2,0.3c0.4,0.2,0.7,0.5,0.9,0.9C41.2,13.6,41.3,14,41.3,14.5z"/>
		<path d="M48,18.4c-0.6,0-1.1-0.1-1.5-0.4c-0.5-0.3-0.8-0.7-1.1-1.1c-0.3-0.5-0.4-1-0.4-1.6c0-0.4,0.1-0.9,0.2-1.2
			c0.2-0.4,0.4-0.7,0.6-1c0.3-0.3,0.6-0.5,1-0.7c0.4-0.2,0.8-0.2,1.2-0.2c0.6,0,1.1,0.1,1.5,0.4c0.5,0.3,0.8,0.7,1.1,1.1
			c0.3,0.5,0.4,1,0.4,1.6c0,0.4-0.1,0.8-0.2,1.2s-0.4,0.7-0.6,1c-0.3,0.3-0.6,0.5-1,0.7C48.8,18.3,48.4,18.4,48,18.4z M48,17.4
			c0.4,0,0.7-0.1,1-0.3c0.3-0.2,0.5-0.5,0.7-0.8c0.2-0.3,0.3-0.7,0.3-1.1c0-0.4-0.1-0.8-0.3-1.1c-0.2-0.3-0.4-0.6-0.7-0.8
			c-0.3-0.2-0.6-0.3-1-0.3c-0.4,0-0.7,0.1-1,0.3c-0.3,0.2-0.5,0.5-0.7,0.8c-0.2,0.3-0.3,0.7-0.3,1.1c0,0.4,0.1,0.8,0.3,1.1
			c0.2,0.3,0.4,0.6,0.7,0.8C47.3,17.3,47.6,17.4,48,17.4z"/>
		<path d="M57.4,14.5v3.7h-1v-3.5c0-0.3-0.1-0.6-0.2-0.8s-0.3-0.4-0.6-0.6c-0.2-0.1-0.5-0.2-0.8-0.2c-0.3,0-0.6,0.1-0.8,0.2
			c-0.2,0.1-0.4,0.3-0.6,0.6c-0.1,0.2-0.2,0.5-0.2,0.8v3.5h-1v-6h1V13c0.2-0.3,0.5-0.5,0.8-0.7s0.7-0.2,1.1-0.2
			c0.4,0,0.9,0.1,1.2,0.3c0.4,0.2,0.7,0.5,0.9,0.9C57.3,13.6,57.4,14,57.4,14.5z"/>
		<path d="M16.4,32.6v-8.4h2.8c0.6,0,1.1,0.1,1.6,0.3c0.5,0.2,1,0.5,1.3,0.9c0.4,0.4,0.7,0.8,0.9,1.3c0.2,0.5,0.3,1,0.3,1.6
			s-0.1,1.1-0.3,1.6c-0.2,0.5-0.5,1-0.9,1.3c-0.4,0.4-0.8,0.7-1.3,0.9s-1.1,0.3-1.6,0.3H16.4z M17.4,31.6h1.8c0.4,0,0.9-0.1,1.2-0.2
			c0.4-0.2,0.7-0.4,1-0.7s0.5-0.6,0.7-1s0.2-0.8,0.2-1.2c0-0.4-0.1-0.9-0.2-1.2c-0.2-0.4-0.4-0.7-0.7-1s-0.6-0.5-1-0.7
			c-0.4-0.2-0.8-0.2-1.2-0.2h-1.8V31.6z"/>
		<path d="M27.1,32.8c-0.6,0-1.1-0.1-1.5-0.4c-0.5-0.3-0.8-0.7-1.1-1.1c-0.3-0.5-0.4-1-0.4-1.6c0-0.4,0.1-0.9,0.2-1.2
			c0.2-0.4,0.4-0.7,0.6-1s0.6-0.5,1-0.7c0.4-0.2,0.8-0.2,1.2-0.2c0.5,0,0.9,0.1,1.2,0.3c0.4,0.2,0.7,0.4,1,0.8s0.5,0.7,0.6,1.1
			c0.1,0.4,0.2,0.9,0.1,1.4h-4.9c0,0.3,0.2,0.6,0.3,0.9c0.2,0.3,0.4,0.5,0.7,0.6s0.6,0.2,0.9,0.2c0.4,0,0.7-0.1,1-0.3
			c0.3-0.2,0.5-0.4,0.7-0.8l1,0.2c-0.2,0.5-0.6,1-1.1,1.3C28.2,32.6,27.7,32.8,27.1,32.8z M25.1,29.2H29c0-0.3-0.1-0.6-0.3-0.9
			c-0.2-0.3-0.4-0.5-0.7-0.7c-0.3-0.2-0.6-0.3-0.9-0.3s-0.6,0.1-0.9,0.2c-0.3,0.2-0.5,0.4-0.7,0.7C25.3,28.5,25.1,28.9,25.1,29.2z"
			/>
		<path d="M31.1,32.6v-9h1v9H31.1z"/>
		<path d="M34.1,25.7c-0.2,0-0.3-0.1-0.4-0.2c-0.1-0.1-0.2-0.2-0.2-0.4c0-0.2,0.1-0.3,0.2-0.4c0.1-0.1,0.2-0.2,0.4-0.2
			c0.2,0,0.3,0.1,0.4,0.2c0.1,0.1,0.2,0.2,0.2,0.4c0,0.2-0.1,0.3-0.2,0.4C34.4,25.6,34.2,25.7,34.1,25.7z M33.6,26.6h1v6h-1V26.6z"
			/>
		<path d="M39.1,32.6h-1.3l-2.2-6h1.1l1.8,4.8l1.8-4.8h1.1L39.1,32.6z"/>
		<path d="M45,32.8c-0.6,0-1.1-0.1-1.5-0.4c-0.5-0.3-0.8-0.7-1.1-1.1c-0.3-0.5-0.4-1-0.4-1.6c0-0.4,0.1-0.9,0.2-1.2
			c0.2-0.4,0.4-0.7,0.6-1c0.3-0.3,0.6-0.5,1-0.7c0.4-0.2,0.8-0.2,1.2-0.2c0.5,0,0.9,0.1,1.2,0.3c0.4,0.2,0.7,0.4,1,0.8
			c0.3,0.3,0.5,0.7,0.6,1.1C48,29.1,48,29.5,48,30h-4.9c0,0.3,0.2,0.6,0.3,0.9c0.2,0.3,0.4,0.5,0.7,0.6c0.3,0.2,0.6,0.2,0.9,0.2
			c0.4,0,0.7-0.1,1-0.3c0.3-0.2,0.5-0.4,0.7-0.8l1,0.2c-0.2,0.5-0.6,1-1.1,1.3C46.2,32.6,45.6,32.8,45,32.8z M43.1,29.2H47
			c0-0.3-0.1-0.6-0.3-0.9c-0.2-0.3-0.4-0.5-0.7-0.7s-0.6-0.3-0.9-0.3s-0.6,0.1-0.9,0.2c-0.3,0.2-0.5,0.4-0.7,0.7
			C43.2,28.5,43.1,28.9,43.1,29.2z"/>
		<path d="M49.1,32.6v-6h1v0.8c0.2-0.3,0.5-0.5,0.8-0.7s0.7-0.2,1.1-0.2c0.2,0,0.5,0,0.7,0.1l-0.4,1c-0.2-0.1-0.3-0.1-0.5-0.1
			c-0.3,0-0.6,0.1-0.8,0.2c-0.2,0.1-0.4,0.3-0.6,0.6c-0.1,0.2-0.2,0.5-0.2,0.8v3.5H49.1z"/>
		<path d="M57.6,26.6h1.1l-3.3,9h-1.1l1.1-3l-2.2-6h1.1l1.6,4.6L57.6,26.6z"/>
	</g>
</g>
</svg>
