<?xml version="1.0" encoding="utf-8"?>
<!-- Generator: Adobe Illustrator 25.4.1, SVG Export Plug-In . SVG Version: 6.00 Build 0)  -->
<svg version="1.0" id="Layer_1" xmlns="http://www.w3.org/2000/svg" xmlns:xlink="http://www.w3.org/1999/xlink" x="0px" y="0px"
	 viewBox="0 0 50 40" style="enable-background:new 0 0 50 40;" xml:space="preserve">
<style type="text/css">
	.st0{display:none;fill:#FF5F00;}
	.st1{display:none;fill:#EB001B;}
	.st2{display:none;fill:#F79E1B;}
	.st3{fill:url(#SVGID_1_);}
	.st4{fill:#FDBD00;}
	.st5{fill:#2DA94F;}
	.st6{fill:url(#SVGID_00000054965651877481747020000009522743935667736212_);}
</style>
<polygon class="st0" points="19.8,29.8 30.5,29.8 30.5,10.6 19.8,10.6 "/>
<path class="st1" d="M20.5,20.2c0-3.8,1.7-7.3,4.7-9.6c-5.3-4.2-13-3.3-17.2,2.1c-4.2,5.3-3.3,13,2.1,17.2c4.4,3.5,10.7,3.5,15.1,0
	C22.2,27.5,20.5,23.9,20.5,20.2"/>
<path class="st2" d="M44.9,20.2c0,6.7-5.4,12.2-12.1,12.3c-2.8,0-5.4-0.9-7.6-2.6c5.3-4.2,6.2-11.9,2-17.3c-0.6-0.7-1.3-1.4-2-2
	c5.3-4.2,12.9-3.3,17.1,2C44,14.7,44.9,17.4,44.9,20.2z"/>
<linearGradient id="SVGID_1_" gradientUnits="userSpaceOnUse" x1="771.9011" y1="-648.6196" x2="809.1969" y2="-662.1932" gradientTransform="matrix(0.39 0 0 -0.39 -271 -235.31)">
	<stop  offset="0" style="stop-color:#D93025"/>
	<stop  offset="0.2" style="stop-color:#D93025"/>
	<stop  offset="0.6" style="stop-color:#EA4335"/>
	<stop  offset="1" style="stop-color:#EA4335"/>
</linearGradient>
<path class="st3" d="M26.4,24l9.7-16.8l5.3,3c3.4,2,4.6,6.3,2.6,9.7c0,0,0,0,0,0l-5.5,9.5c-1.2,2.1-4,2.9-6.1,1.6l-4.9-2.8
	C26,27.4,25.5,25.5,26.4,24z"/>
<path class="st4" d="M25.4,12.3l-12,20.9l5.3,3c3.4,2,7.8,0.8,9.7-2.6c0,0,0,0,0,0l7.8-13.5c1.2-2.1,0.5-4.8-1.6-6.1c0,0,0,0,0,0
	l-4.9-2.8C28.1,10.3,26.2,10.9,25.4,12.3C25.4,12.3,25.4,12.3,25.4,12.3z"/>
<path class="st5" d="M36.1,7.2l-3.7-2.2c-4.3-2.5-9.7-1-12.2,3.3l-6.9,12c-1.2,2.1-0.5,4.8,1.6,6.1c0,0,0,0,0,0l3.7,2.2
	c2.1,1.2,4.8,0.5,6.1-1.6c0,0,0,0,0,0L33,12.6c1.7-3,5.5-4,8.5-2.3"/>
<linearGradient id="SVGID_00000057141008687099828420000011700788119422363264_" gradientUnits="userSpaceOnUse" x1="715.3817" y1="-652.7081" x2="756.9391" y2="-667.835" gradientTransform="matrix(0.39 0 0 -0.39 -271 -235.31)">
	<stop  offset="0" style="stop-color:#4285F4"/>
	<stop  offset="0.2" style="stop-color:#4285F4"/>
	<stop  offset="0.8" style="stop-color:#1B74E8"/>
	<stop  offset="1" style="stop-color:#1B74E8"/>
</linearGradient>
<path style="fill:url(#SVGID_00000057141008687099828420000011700788119422363264_);" d="M21.3,11.8l-4.1-2.4
	C15.3,8.4,13,9,11.9,10.9l-5,8.5c-2.4,4.2-1,9.6,3.2,12c0,0,0,0,0,0l3.1,1.8l3.8,2.2l1.6,1c-2.9-2-3.8-5.9-2.1-9l1.3-2.2l4.7-8.1
	C23.7,15.2,23.1,12.9,21.3,11.8C21.3,11.8,21.3,11.8,21.3,11.8z"/>
</svg>
