<?xml version="1.0" encoding="utf-8"?>
<!-- Generator: Adobe Illustrator 25.4.1, SVG Export Plug-In . SVG Version: 6.00 Build 0)  -->
<svg version="1.0" id="Layer_1" xmlns="http://www.w3.org/2000/svg" xmlns:xlink="http://www.w3.org/1999/xlink" x="0px" y="0px"
	 viewBox="0 0 124 124" style="enable-background:new 0 0 124 124;" xml:space="preserve">
<style type="text/css">
	.st0{display:none;fill:#333033;}
	.st1{fill-rule:evenodd;clip-rule:evenodd;fill:#333033;}
	.st2{fill:#F66569;}
	.st3{fill:#FFFFFF;stroke:#F66569;stroke-width:6.807229e-04;stroke-miterlimit:8.509;}
</style>
<path class="st0" d="M106.3,36.6c-2.8,1.3-6,2.1-9,2.6c1.5-0.2,3.6-2.9,4.5-3.9c1.3-1.6,2.4-3.5,3-5.5c0.1-0.2,0.1-0.4,0-0.5
	c-0.2-0.1-0.3,0-0.5,0c-3.4,1.8-6.9,3.2-10.7,4.1c-0.3,0.1-0.5,0-0.7-0.2c-0.3-0.4-0.6-0.7-0.9-1c-1.6-1.3-3.3-2.4-5.2-3.2
	c-2.5-1-5.3-1.5-8-1.3c-2.6,0.2-5.2,0.9-7.5,2.1s-4.4,2.9-6.1,5c-1.7,2.1-3,4.6-3.6,7.3c-0.6,2.6-0.6,5.1-0.2,7.7
	c0.1,0.4,0,0.5-0.4,0.4c-14.8-2.1-27-7.3-36.9-18.6c-0.4-0.5-0.7-0.5-1,0c-4.3,6.5-2.2,16.9,3.2,22.1c0.7,0.7,1.5,1.4,2.3,2
	c-0.3,0.1-3.9-0.3-7.1-2c-0.4-0.3-0.6-0.1-0.7,0.4c0,0.7,0,1.3,0.1,2.1c0.8,6.6,5.4,12.7,11.6,15c0.7,0.3,1.6,0.6,2.4,0.7
	c-1.4,0.3-2.9,0.5-7,0.2c-0.5-0.1-0.7,0.2-0.5,0.6C30.4,81.1,37,83.6,42,85c0.7,0.1,1.3,0.1,2,0.3c0,0.1-0.1,0.1-0.1,0.1
	c-1.6,2.5-7.3,4.4-10,5.3c-4.8,1.7-10.1,2.4-15.2,1.9c-0.8-0.1-1-0.1-1.2,0s0,0.3,0.2,0.5c1,0.7,2.1,1.3,3.2,1.9
	c3.2,1.7,6.6,3.1,10.1,4.1c18.2,5,38.8,1.3,52.5-12.3C94.2,76.2,98,61.5,98,46.7c0-0.6,0.7-0.9,1.1-1.2c2.8-2.1,5-4.6,7.1-7.4
	c0.5-0.6,0.4-1.2,0.4-1.4v-0.1C106.6,36.4,106.7,36.4,106.3,36.6z"/>
<path class="st1" d="M51.3,102.3C59.1,102.3,51.7,102.3,51.3,102.3C52.4,102.3,51.2,102.3,51.3,102.3z M51.3,102.3
	C51.2,102.3,49.8,102.3,51.3,102.3C51.3,102.3,51,102.3,51.3,102.3z M54.4,102.4C54.4,102.2,56.1,102.4,54.4,102.4
	C54.4,102.3,54.6,102.4,54.4,102.4z M87,27c-0.1,0.1-0.2,0.1-0.4,0C86.7,27,86.9,27,87,27z"/>
<g id="SVGRepo_iconCarrier_00000106111625060120341880000017334168230848189346_">
	<path class="st2" d="M42.3,112V79.8c-3.6-1.8-6.1-6.1-6.1-10.3V45.3c0-4.2,2.4-7.9,6.1-10.3c0-0.6,0-1.2,0-1.8
		c0-6.7-5.5-12.1-12.1-12.1s-12.1,5.5-12.1,12.1s5.5,12.1,12.1,12.1H18.1c-3,0-6.1,3-6.1,6.1v24.3c0,3,3,6.1,6.1,6.1V112H42.3z"/>
	<path class="st2" d="M103,45.3H90.8c6.7,0,12.1-5.5,12.1-12.1S97.5,21,90.8,21s-12.1,5.5-12.1,12.1c0,0.6,0,1.2,0,1.8
		c3.6,2.4,6.1,6.1,6.1,10.3v24.3c0,4.2-2.4,8.5-6.1,10.3V112H103V81.6c3,0,6.1-3,6.1-6.1V51.3C109,48.3,106,45.3,103,45.3z"/>
	<path class="st2" d="M72.6,27.1c0,6.7-5.4,12.1-12.1,12.1s-12.1-5.4-12.1-12.1S53.8,15,60.5,15S72.6,20.4,72.6,27.1z"/>
	<path class="st2" d="M72.6,39.2H48.4c-3,0-6.1,3-6.1,6.1v24.3c0,3,3,6.1,6.1,6.1V112h24.3V75.6c3,0,6.1-3,6.1-6.1V45.3
		C78.7,42.2,75.7,39.2,72.6,39.2z"/>
</g>
<g id="SVGRepo_iconCarrier">
	<path class="st3" d="M45.1,114.8h11.6c0,3.2-2.6,5.8-5.8,5.8S45.1,118,45.1,114.8z M82.6,120.6c3.2,0,5.8-2.6,5.8-5.8H76.9
		C76.9,118,79.5,120.6,82.6,120.6z M102.9,62.9h-67L33,48.5H22v5.7h6.3l11.5,57.7h51.5v-5.7H44.6l-1.7-8.7h48.5L102.9,62.9z"/>
</g>
</svg>
