<?xml version="1.0" encoding="utf-8"?>
<!-- Generator: Adobe Illustrator 25.4.1, SVG Export Plug-In . SVG Version: 6.00 Build 0)  -->
<svg version="1.1" id="Layer_1" xmlns="http://www.w3.org/2000/svg" xmlns:xlink="http://www.w3.org/1999/xlink" x="0px" y="0px"
	 viewBox="0 0 124 124" style="enable-background:new 0 0 124 124;" xml:space="preserve">
<style type="text/css">
	.st0{display:none;fill:#333033;}
	.st1{fill-rule:evenodd;clip-rule:evenodd;fill:#333033;}
	.st2{fill:#EF4B57;}
	.st3{fill:#F66569;}
	.st4{fill:#F299A1;}
	.st5{fill:#FFDA75;}
	.st6{fill:#111111;}
</style>
<path class="st0" d="M106.3,36.6c-2.8,1.3-6,2.1-9,2.6c1.5-0.2,3.6-2.9,4.5-3.9c1.3-1.6,2.4-3.5,3-5.5c0.1-0.2,0.1-0.4,0-0.5
	c-0.2-0.1-0.3,0-0.5,0c-3.4,1.8-6.9,3.2-10.7,4.1c-0.3,0.1-0.5,0-0.7-0.2c-0.3-0.4-0.6-0.7-0.9-1c-1.6-1.3-3.3-2.4-5.2-3.2
	c-2.5-1-5.3-1.5-8-1.3c-2.6,0.2-5.2,0.9-7.5,2.1s-4.4,2.9-6.1,5c-1.7,2.1-3,4.6-3.6,7.3c-0.6,2.6-0.6,5.1-0.2,7.7
	c0.1,0.4,0,0.5-0.4,0.4c-14.8-2.1-27-7.3-36.9-18.6c-0.4-0.5-0.7-0.5-1,0c-4.3,6.5-2.2,16.9,3.2,22.1c0.7,0.7,1.5,1.4,2.3,2
	c-0.3,0.1-3.9-0.3-7.1-2c-0.4-0.3-0.6-0.1-0.7,0.4c0,0.7,0,1.3,0.1,2.1c0.8,6.6,5.4,12.7,11.6,15c0.7,0.3,1.6,0.6,2.4,0.7
	c-1.4,0.3-2.9,0.5-7,0.2c-0.5-0.1-0.7,0.2-0.5,0.6C30.4,81.1,37,83.6,42,85c0.7,0.1,1.3,0.1,2,0.3c0,0.1-0.1,0.1-0.1,0.1
	c-1.6,2.5-7.3,4.4-10,5.3c-4.8,1.7-10.1,2.4-15.2,1.9c-0.8-0.1-1-0.1-1.2,0s0,0.3,0.2,0.5c1,0.7,2.1,1.3,3.2,1.9
	c3.2,1.7,6.6,3.1,10.1,4.1c18.2,5,38.8,1.3,52.5-12.3C94.2,76.2,98,61.5,98,46.7c0-0.6,0.7-0.9,1.1-1.2c2.8-2.1,5-4.6,7.1-7.4
	c0.5-0.6,0.4-1.2,0.4-1.4v-0.1C106.6,36.4,106.7,36.4,106.3,36.6z"/>
<path class="st1" d="M43.9,101C51.4,101,44.2,101,43.9,101C44.9,101,43.8,101,43.9,101z M43.9,101C43.8,101,42.4,101,43.9,101
	C43.9,101,43.6,101,43.9,101z M46.9,101.1C46.9,100.9,48.5,101.1,46.9,101.1C46.9,101,47.1,101.1,46.9,101.1z M78.5,27.9
	c-0.1,0.1-0.2,0.1-0.4,0C78.2,27.9,78.4,27.9,78.5,27.9z"/>
<path class="st2" d="M112.6,59.4C112.4,87,89.9,109.2,62.3,109S12.5,86.3,12.7,58.7C12.9,31.1,35.4,8.9,63,9.1
	C90.6,9.3,112.8,31.8,112.6,59.4"/>
<path class="st3" d="M113.7,57.1c-0.2,27.6-22.7,49.8-50.3,49.6S13.6,84,13.8,56.4C14.1,28.8,36.6,6.6,64.1,6.8
	C91.7,7,113.9,29.5,113.7,57.1"/>
<path class="st3" d="M105,57c-0.2,22.7-18.7,41-41.5,40.9c-22.7-0.2-41.1-18.7-40.9-41.5c0.2-22.7,18.7-41,41.5-40.9
	C86.8,15.7,105.1,34.3,105,57"/>
<path class="st4" d="M83.1,20.4c13.1,7,21.9,20.8,21.8,36.7c-0.2,22.7-18.7,41-41.5,40.9c-6.3,0-12.3-1.5-17.6-4.1
	c5.7,3,12.2,4.8,19.1,4.8c22.7,0.2,41.3-18.1,41.5-40.9C106.5,41.3,97,27.1,83.1,20.4"/>
<path class="st5" d="M68.7,49c-9.2-0.1-18.4-0.1-27.6-0.2c0-4.1,1.9-6,5.6-6c6.4,0,12.8,0.1,19.2,0.1c0.9,0,1.8,0,2.7,0
	c0.2-4.1-5.8-7.9-9.4-7.9c-6.1,0-12.1-0.1-18.2-0.1c0.5-4.8,1.8-6,6.3-5.9c11.9,0.1,23.9,0.2,35.8,0.3c0.9,0,1.8,0,3.3,0
	c-1,2.2-1.8,4-2.7,5.9c-2.8,0-5.6,0-8.5-0.1c1,2.5,1.8,4.8,2.9,7.1c0.2,0.5,1.3,0.8,1.9,0.8c1.9,0.1,3.7,0.1,5.6,0.1
	c-0.1,4-1.9,5.8-5.5,6c-0.8,0.1-2.1,0.9-2.3,1.6c-2.4,7.5-8.3,11.9-16.1,12c-2.2,0-4.4,0-7.4,0c7.9,8.1,15.3,15.7,22.8,23.2
	c-0.1,0.3-0.2,0.5-0.3,0.8c-3.1,0-6.2,0-9.3-0.1c-0.8,0-1.7-0.7-2.3-1.3c-7-7-14-14.1-21-21.2c-1.1-1.1-1.9-5.2-1-6.5
	c0.4-0.5,1.4-0.8,2.2-0.8c5.1-0.1,10.2,0,15.3-0.3C64.8,56.4,68.5,52.6,68.7,49z"/>
<path class="st6" d="M68.7,47.9c-9.2-0.1-18.4-0.1-27.6-0.2c0-4.1,1.9-6,5.6-6c6.4,0,12.8,0.1,19.2,0.1c0.9,0,1.8,0,2.7,0
	c0.2-4.1-5.8-7.9-9.4-7.9c-6.1,0-12.1-0.1-18.2-0.1c0.5-4.8,1.8-6,6.3-5.9c12.1,0.1,24,0.1,36,0.2c0.9,0,1.8,0,3.3,0
	c-1,2.2-1.8,4-2.7,5.9c-2.8,0-5.6,0-8.5-0.1c1,2.5,1.8,4.8,2.9,7.1c0.2,0.5,1.3,0.8,1.9,0.8C82.1,42,84,42,85.9,42
	c-0.1,4-1.9,5.8-5.5,6c-0.8,0.1-2.1,0.9-2.3,1.6c-2.4,7.5-8.3,11.9-16.1,12c-2.2,0-4.4,0-7.4,0c7.9,8.1,15.3,15.7,22.8,23.2
	c-0.1,0.3-0.2,0.5-0.3,0.8c-3.1,0-6.2,0-9.3-0.1c-0.8,0-1.7-0.7-2.3-1.3c-7-7-14-14.1-21-21.2c-1.1-1.1-1.9-5.2-1-6.5
	c0.4-0.5,1.4-0.8,2.2-0.8c5.1-0.1,10.2,0,15.3-0.3C64.8,55.2,68.5,51.4,68.7,47.9z"/>
</svg>
