<?xml version="1.0" encoding="utf-8"?>
<!-- Generator: Adobe Illustrator 25.4.1, SVG Export Plug-In . SVG Version: 6.00 Build 0)  -->
<svg version="1.0" id="Layer_1" xmlns="http://www.w3.org/2000/svg" xmlns:xlink="http://www.w3.org/1999/xlink" x="0px" y="0px"
	 viewBox="0 0 50 40" style="enable-background:new 0 0 50 40;" xml:space="preserve">
<style type="text/css">
	.st0{fill:#FF5F00;}
	.st1{fill:#EB001B;}
	.st2{fill:#F79E1B;}
</style>
<polygon class="st0" points="19.8,29.8 30.5,29.8 30.5,10.6 19.8,10.6 "/>
<path class="st1" d="M20.5,20.2c0-3.8,1.7-7.3,4.7-9.6c-5.3-4.2-13-3.3-17.2,2.1c-4.2,5.3-3.3,13,2.1,17.2c4.4,3.5,10.7,3.5,15.1,0
	C22.2,27.5,20.5,23.9,20.5,20.2"/>
<path class="st2" d="M44.9,20.2c0,6.7-5.4,12.2-12.1,12.3c-2.8,0-5.4-0.9-7.6-2.6c5.3-4.2,6.2-11.9,2-17.3c-0.6-0.7-1.3-1.4-2-2
	c5.3-4.2,12.9-3.3,17.1,2C44,14.7,44.9,17.4,44.9,20.2z"/>
</svg>
