<?xml version="1.0" encoding="utf-8"?>
<!-- Generator: Adobe Illustrator 25.4.1, SVG Export Plug-In . SVG Version: 6.00 Build 0)  -->
<svg version="1.0" id="Layer_1" xmlns="http://www.w3.org/2000/svg" xmlns:xlink="http://www.w3.org/1999/xlink" x="0px" y="0px"
	 viewBox="0 0 50 40" style="enable-background:new 0 0 50 40;" xml:space="preserve">
<style type="text/css">
	.st0{fill:#17BAED;}
	.st1{fill:#223368;}
</style>
<g id="XMLID_97_">
	<g id="XMLID_100_">
		<path id="XMLID_96_" class="st0" d="M48.3,17.1c-0.4-1.2-1.6-2.1-3-2.1h0c-0.9,0-1.7,0.4-2.3,1c-0.6-0.6-1.4-1-2.3-1h0
			c-0.8,0-1.5,0.3-2,0.8v-0.2c0-0.2-0.2-0.4-0.5-0.4h-2.1c-0.3,0-0.5,0.2-0.5,0.5v11.4c0,0.3,0.2,0.5,0.5,0.5h2.1
			c0.2,0,0.4-0.2,0.5-0.4l0-8.2c0,0,0-0.1,0-0.1c0-0.4,0.3-0.7,0.7-0.7h0.1h0.2h0.1c0.2,0,0.3,0.1,0.4,0.2c0.2,0.1,0.3,0.4,0.3,0.6
			l0,8.1c0,0.3,0.2,0.5,0.5,0.5h2.1c0.2,0,0.4-0.2,0.5-0.4l0-8.2c0-0.3,0.1-0.5,0.3-0.7c0.1-0.1,0.2-0.1,0.4-0.1h0.1h0.2h0.1
			c0.5,0,0.7,0.4,0.7,0.8l0,8.1c0,0.3,0.2,0.5,0.5,0.5H48c0.3,0,0.5-0.2,0.5-0.5v-8.7C48.5,17.6,48.4,17.3,48.3,17.1"/>
		<path id="XMLID_95_" class="st0" d="M34.1,15.1h-1.2v-1.9c0,0,0,0,0,0c0-0.2-0.2-0.4-0.4-0.4c0,0-0.1,0-0.1,0
			c-1.3,0.4-1.1,2.2-3.5,2.4h-0.1h-0.2c0,0-0.1,0-0.1,0h0l0,0c-0.2,0-0.4,0.2-0.4,0.5v2.1c0,0.3,0.2,0.5,0.5,0.5h1.3l0,8.9
			c0,0.3,0.2,0.5,0.5,0.5h2.1c0.3,0,0.5-0.2,0.5-0.5l0-8.9h1.2c0.3,0,0.5-0.2,0.5-0.5v-2.1C34.6,15.3,34.4,15.1,34.1,15.1"/>
		<path id="XMLID_94_" class="st1" d="M26.6,15.1h-2.1c-0.3,0-0.5,0.2-0.5,0.5v4.3c0,0.3-0.2,0.5-0.5,0.5h-0.9
			c-0.3,0-0.5-0.2-0.5-0.5l0-4.3c0-0.3-0.2-0.5-0.5-0.5h-2.1c-0.3,0-0.5,0.2-0.5,0.5v4.8c0,1.8,1.3,3.1,3.1,3.1c0,0,1.4,0,1.4,0
			c0.2,0,0.4,0.2,0.4,0.5c0,0.2-0.2,0.5-0.4,0.5c0,0,0,0,0,0l-3.1,0c-0.3,0-0.5,0.2-0.5,0.5V27c0,0.3,0.2,0.5,0.5,0.5h3.4
			c1.8,0,3.1-1.3,3.1-3.1v-8.8C27,15.3,26.8,15.1,26.6,15.1"/>
		<path id="XMLID_188_" class="st1" d="M6.4,15.1H1.9c-0.3,0-0.5,0.2-0.5,0.5v2.1c0,0,0,0,0,0c0,0,0,0,0,0v6.6v2.7
			c0,0.3,0.2,0.5,0.4,0.5h0H4c0.3,0,0.5-0.2,0.5-0.5l0-3.2h2c1.7,0,2.8-1.2,2.8-2.9v-3C9.3,16.3,8.1,15.1,6.4,15.1 M6.3,18.9v1v0.3
			c0,0.3-0.2,0.5-0.5,0.5l-1.3,0v-2.6h1.3c0.3,0,0.5,0.2,0.5,0.5V18.9z"/>
		<path id="XMLID_185_" class="st1" d="M14.6,15.1h-2.9c-0.3,0-0.5,0.2-0.5,0.4v0.8c0,0,0,0,0,0c0,0,0,0,0,0v1.1
			c0,0.3,0.2,0.5,0.5,0.5h2.8c0.2,0,0.4,0.2,0.4,0.4v0.3c0,0.2-0.2,0.4-0.4,0.4h-1.4c-1.8,0-3.1,1.2-3.1,2.9v2.4v0.1
			c0,1.7,1.1,2.9,2.9,2.9h3.8c0.7,0,1.2-0.5,1.2-1.2v-8C18,16.3,17,15.1,14.6,15.1 M15,23.9v0.3c0,0,0,0.1,0,0.1c0,0,0,0,0,0.1
			c-0.1,0.2-0.2,0.3-0.5,0.3h-0.9c-0.3,0-0.5-0.2-0.5-0.5v-0.4c0,0,0,0,0,0l0-1.1v0v-0.1v-0.2l0,0c0-0.3,0.2-0.5,0.5-0.5h0.9
			c0.3,0,0.5,0.2,0.5,0.5V23.9z"/>
	</g>
</g>
</svg>
