<?xml version="1.0" encoding="utf-8"?>
<!-- Generator: Adobe Illustrator 25.4.1, SVG Export Plug-In . SVG Version: 6.00 Build 0)  -->
<svg version="1.0" id="Layer_1" xmlns="http://www.w3.org/2000/svg" xmlns:xlink="http://www.w3.org/1999/xlink" x="0px" y="0px"
	 viewBox="0 0 50 40" style="enable-background:new 0 0 50 40;" xml:space="preserve">
<style type="text/css">
	.st0{fill:#5F259F;}
	.st1{fill:#FFFFFF;}
</style>
<circle class="st0" cx="9.3" cy="19.2" r="5.8"/>
<path class="st0" d="M33,22.5v-2.1c0-0.5-0.2-0.8-0.7-0.8c-0.2,0-0.4,0-0.6,0.1v3.1c0,0.1-0.1,0.2-0.2,0.2h-0.8
	c-0.1,0-0.2-0.1-0.2-0.2v-3.6c0-0.1,0.1-0.2,0.2-0.3c0.5-0.2,1-0.3,1.5-0.3c1.2,0,1.8,0.6,1.8,1.8v2.4c0,0.1-0.1,0.2-0.2,0.2h-0.5
	C33.2,23,33,22.8,33,22.5C33,22.5,33,22.5,33,22.5z M35.9,21.2l0,0.3c0,0.4,0.3,0.6,0.7,0.6c0.3,0,0.7-0.1,0.9-0.3c0,0,0.1,0,0.1,0
	c0.1,0,0.1,0,0.1,0.1c0,0,0.1,0.1,0.1,0.1c0.1,0.1,0.1,0.2,0.1,0.3c0,0.2-0.1,0.3-0.2,0.4c-0.4,0.2-0.8,0.3-1.2,0.3
	c-0.5,0-0.9-0.1-1.3-0.4c-0.3-0.3-0.5-0.7-0.5-1.2v-1.3c0-1,0.7-1.6,1.8-1.6c1.1,0,1.7,0.6,1.7,1.6V21c0,0.1-0.1,0.2-0.2,0.2
	L35.9,21.2L35.9,21.2z M35.9,20.5h1.2v-0.3c0-0.4-0.2-0.7-0.6-0.7s-0.6,0.2-0.6,0.7V20.5z M44.2,21.2l0,0.3c0,0.4,0.3,0.6,0.7,0.6
	c0.3,0,0.7-0.1,0.9-0.3c0,0,0.1,0,0.1,0c0.1,0,0.1,0,0.1,0.1c0,0,0.1,0.1,0.1,0.1c0.1,0.1,0.1,0.2,0.1,0.3c0,0.2-0.1,0.3-0.2,0.4
	c-0.4,0.2-0.8,0.3-1.2,0.3c-0.5,0-0.9-0.1-1.3-0.4c-0.3-0.3-0.5-0.7-0.5-1.2v-1.3c0-1,0.7-1.6,1.8-1.6c1.1,0,1.7,0.6,1.7,1.6V21
	c0,0.1-0.1,0.2-0.2,0.2L44.2,21.2L44.2,21.2z M44.1,20.5h1.2v-0.3c0-0.4-0.2-0.7-0.6-0.7s-0.6,0.2-0.6,0.7V20.5z M25,23h0.5
	c0.1,0,0.2-0.1,0.2-0.2v-2.4c0-1.1-0.6-1.8-1.6-1.8c-0.3,0-0.6,0-0.8,0.1v-1.2c0-0.3-0.2-0.5-0.5-0.5h-0.5c-0.1,0-0.2,0.1-0.2,0.2
	v5.5c0,0.1,0.1,0.2,0.2,0.2H23c0.1,0,0.2-0.1,0.2-0.2v-3.1c0.2-0.1,0.4-0.1,0.6-0.1c0.5,0,0.7,0.2,0.7,0.8v2.1
	C24.5,22.8,24.7,23,25,23z M29.9,20.2v1.2c0,1-0.7,1.6-1.8,1.6c-1.1,0-1.8-0.6-1.8-1.6v-1.2c0-1,0.7-1.6,1.8-1.6
	C29.2,18.6,29.9,19.2,29.9,20.2L29.9,20.2z M28.7,20.2c0-0.3-0.2-0.6-0.5-0.7c0,0-0.1,0-0.1,0c-0.4,0-0.7,0.2-0.7,0.7v1.2
	c0,0.4,0.2,0.6,0.7,0.6c0.4,0,0.7-0.2,0.7-0.6V20.2z M21.5,19.7c0,1-0.8,1.8-1.8,1.8c-0.2,0-0.5,0-0.7-0.1v1.5
	c0,0.1-0.1,0.2-0.2,0.2H18c-0.1,0-0.2-0.1-0.2-0.2v-5.2c0-0.1,0.1-0.2,0.2-0.3c0.5-0.2,1-0.3,1.5-0.3c1.2,0,2,0.7,2,1.8L21.5,19.7z
	 M20.3,18.8c0-0.5-0.4-0.8-0.9-0.8c-0.2,0-0.3,0-0.5,0.1v2.2c0.2,0.1,0.3,0.1,0.5,0.1c0.5,0,0.9-0.3,0.9-0.8L20.3,18.8L20.3,18.8z
	 M42.5,19.7c0,1-0.8,1.8-1.8,1.8c-0.2,0-0.5,0-0.7-0.1v1.5c0,0.1-0.1,0.2-0.2,0.2h-0.8c-0.1,0-0.2-0.1-0.2-0.2v-5.2
	c0-0.1,0.1-0.2,0.2-0.3c0.5-0.2,1-0.3,1.5-0.3c1.2,0,2,0.7,2,1.8L42.5,19.7z M41.4,18.8c0-0.5-0.4-0.8-0.9-0.8c-0.2,0-0.3,0-0.5,0.1
	v2.2c0.2,0.1,0.3,0.1,0.5,0.1c0.5,0,0.9-0.3,0.9-0.8L41.4,18.8L41.4,18.8z"/>
<path class="st1" d="M11.9,17.6c0-0.2-0.2-0.4-0.4-0.4h-0.8l-1.8-2C8.7,15,8.5,14.9,8.2,15l-0.6,0.2c-0.1,0-0.1,0.1-0.1,0.2
	c0,0,0,0,0,0l2,1.9h-3c-0.1,0-0.2,0.1-0.2,0.1c0,0,0,0,0,0v0.3c0,0.2,0.2,0.4,0.4,0.4h0.5v1.6c0,1.2,0.6,1.9,1.7,1.9
	c0.3,0,0.6-0.1,0.9-0.2v1c0,0.3,0.2,0.5,0.5,0.5c0,0,0,0,0,0h0.5c0.1,0,0.2-0.1,0.2-0.2v-4.7h0.8c0.1,0,0.2-0.1,0.2-0.1c0,0,0,0,0,0
	L11.9,17.6z M9.8,20.4c-0.2,0.1-0.4,0.1-0.7,0.1c-0.5,0-0.8-0.3-0.8-0.9v-1.6h1.4V20.4z"/>
</svg>
