<?xml version="1.0" encoding="utf-8"?>
<!-- Generator: Adobe Illustrator 25.4.1, SVG Export Plug-In . SVG Version: 6.00 Build 0)  -->
<svg version="1.1" id="Layer_1" xmlns="http://www.w3.org/2000/svg" xmlns:xlink="http://www.w3.org/1999/xlink" x="0px" y="0px"
	 viewBox="0 0 50 40" style="enable-background:new 0 0 50 40;" xml:space="preserve">
<style type="text/css">
	.st0{display:none;}
	.st1{display:inline;}
	.st2{fill:#17BAED;}
	.st3{fill:#223368;}
	.st4{fill-rule:evenodd;clip-rule:evenodd;fill:#3A3734;}
	.st5{fill-rule:evenodd;clip-rule:evenodd;fill:#716D6A;}
	.st6{fill-rule:evenodd;clip-rule:evenodd;fill:#0E8635;}
	.st7{fill-rule:evenodd;clip-rule:evenodd;fill:#E97208;}
	.st8{fill:#808080;}
</style>
<g id="XMLID_97_" class="st0">
	<g id="XMLID_100_" class="st1">
		<path id="XMLID_96_" class="st2" d="M48.3,17.1c-0.4-1.2-1.6-2.1-3-2.1l0,0c-0.9,0-1.7,0.4-2.3,1c-0.6-0.6-1.4-1-2.3-1l0,0
			c-0.8,0-1.5,0.3-2,0.8v-0.2c0-0.2-0.2-0.4-0.5-0.4h-2.1c-0.3,0-0.5,0.2-0.5,0.5v11.4c0,0.3,0.2,0.5,0.5,0.5h2.1
			c0.2,0,0.4-0.2,0.5-0.4V19v-0.1c0-0.4,0.3-0.7,0.7-0.7h0.1h0.2h0.1c0.2,0,0.3,0.1,0.4,0.2c0.2,0.1,0.3,0.4,0.3,0.6v8.1
			c0,0.3,0.2,0.5,0.5,0.5h2.1c0.2,0,0.4-0.2,0.5-0.4V19c0-0.3,0.1-0.5,0.3-0.7c0.1-0.1,0.2-0.1,0.4-0.1h0.1h0.2h0.1
			c0.5,0,0.7,0.4,0.7,0.8v8.1c0,0.3,0.2,0.5,0.5,0.5H48c0.3,0,0.5-0.2,0.5-0.5v-8.7C48.5,17.6,48.4,17.3,48.3,17.1"/>
		<path id="XMLID_95_" class="st2" d="M34.1,15.1h-1.2v-1.9l0,0c0-0.2-0.2-0.4-0.4-0.4h-0.1c-1.3,0.4-1.1,2.2-3.5,2.4h-0.1h-0.2
			h-0.1l0,0l0,0c-0.2,0-0.4,0.2-0.4,0.5v2.1c0,0.3,0.2,0.5,0.5,0.5h1.3v8.9c0,0.3,0.2,0.5,0.5,0.5h2.1c0.3,0,0.5-0.2,0.5-0.5v-8.9
			h1.2c0.3,0,0.5-0.2,0.5-0.5v-2.1C34.6,15.3,34.4,15.1,34.1,15.1"/>
		<path id="XMLID_94_" class="st3" d="M26.6,15.1h-2.1c-0.3,0-0.5,0.2-0.5,0.5v4.3c0,0.3-0.2,0.5-0.5,0.5h-0.9
			c-0.3,0-0.5-0.2-0.5-0.5v-4.3c0-0.3-0.2-0.5-0.5-0.5h-2.1c-0.3,0-0.5,0.2-0.5,0.5v4.8c0,1.8,1.3,3.1,3.1,3.1h1.4
			c0.2,0,0.4,0.2,0.4,0.5c0,0.2-0.2,0.5-0.4,0.5l0,0h-3.1c-0.3,0-0.5,0.2-0.5,0.5v2c0,0.3,0.2,0.5,0.5,0.5h3.4
			c1.8,0,3.1-1.3,3.1-3.1v-8.8C27,15.3,26.8,15.1,26.6,15.1"/>
		<path id="XMLID_188_" class="st3" d="M6.4,15.1H1.9c-0.3,0-0.5,0.2-0.5,0.5v2.1l0,0l0,0v6.6V27c0,0.3,0.2,0.5,0.4,0.5l0,0H4
			c0.3,0,0.5-0.2,0.5-0.5v-3.2h2c1.7,0,2.8-1.2,2.8-2.9v-3C9.3,16.3,8.1,15.1,6.4,15.1 M6.3,18.9v1v0.3c0,0.3-0.2,0.5-0.5,0.5H4.5
			v-2.6h1.3c0.3,0,0.5,0.2,0.5,0.5V18.9z"/>
		<path id="XMLID_185_" class="st3" d="M14.6,15.1h-2.9c-0.3,0-0.5,0.2-0.5,0.4v0.8l0,0l0,0v1.1c0,0.3,0.2,0.5,0.5,0.5h2.8
			c0.2,0,0.4,0.2,0.4,0.4v0.3c0,0.2-0.2,0.4-0.4,0.4h-1.4c-1.8,0-3.1,1.2-3.1,2.9v2.4v0.1c0,1.7,1.1,2.9,2.9,2.9h3.8
			c0.7,0,1.2-0.5,1.2-1.2v-8C18,16.3,17,15.1,14.6,15.1 M15,23.9v0.3v0.1c0,0,0,0,0,0.1c-0.1,0.2-0.2,0.3-0.5,0.3h-0.9
			c-0.3,0-0.5-0.2-0.5-0.5v-0.4l0,0v-1.1l0,0v-0.1v-0.2l0,0c0-0.3,0.2-0.5,0.5-0.5h0.9c0.3,0,0.5,0.2,0.5,0.5V23.9z"/>
	</g>
</g>
<path class="st4" d="M7.2,25.8h0.3l-0.3,1.1c0,0.2,0,0.3,0,0.4c0.1,0.1,0.1,0.1,0.3,0.1c0.1,0,0.3,0,0.3-0.1C8,27.1,8,27,8.1,26.8
	l0.3-1.1h0.3l-0.3,1.1c-0.1,0.2-0.2,0.4-0.3,0.5c-0.1,0.1-0.3,0.2-0.6,0.2c-0.2,0-0.4-0.1-0.5-0.2c-0.1-0.1-0.1-0.3,0-0.5L7.2,25.8
	L7.2,25.8z M39.8,27.5l0.4-1.7h0.9L41.1,26h-0.7l-0.1,0.4H41l-0.1,0.2h-0.7l-0.1,0.6h0.7l-0.1,0.3L39.8,27.5L39.8,27.5z M39.8,26.2
	c-0.1-0.1-0.1-0.1-0.2-0.2c-0.1,0-0.2-0.1-0.3-0.1c-0.2,0-0.3,0.1-0.5,0.2c-0.1,0.1-0.2,0.3-0.3,0.5c0,0.2,0,0.3,0.1,0.5
	c0.1,0.1,0.2,0.2,0.4,0.2c0.1,0,0.2,0,0.3-0.1c0.1,0,0.2-0.1,0.3-0.2l-0.1,0.3c-0.1,0.1-0.2,0.1-0.3,0.1c-0.1,0-0.2,0-0.3,0
	c-0.1,0-0.2,0-0.3-0.1c-0.1,0-0.2-0.1-0.2-0.2c-0.1-0.1-0.1-0.2-0.1-0.3c0-0.1,0-0.2,0-0.4c0-0.1,0.1-0.2,0.2-0.4
	c0.1-0.1,0.2-0.2,0.3-0.3c0.1-0.1,0.2-0.2,0.3-0.2c0.1,0,0.2-0.1,0.4-0.1c0.1,0,0.2,0,0.3,0c0.1,0,0.2,0.1,0.2,0.1L39.8,26.2z
	 M37.1,26.8h0.5l-0.1-0.4c0,0,0-0.1,0-0.1c0,0,0-0.1,0-0.1c0,0,0,0.1-0.1,0.1c0,0,0,0.1-0.1,0.1L37.1,26.8L37.1,26.8z M37.7,27.5
	l-0.1-0.4h-0.7l-0.3,0.4h-0.3l1.2-1.8l0.4,1.8H37.7z M35.4,27.5l0.4-1.7h0.9L36.7,26h-0.7L36,26.5h0.7l-0.1,0.2h-0.7l-0.2,0.8
	L35.4,27.5L35.4,27.5L35.4,27.5z M34.6,26.5L34.6,26.5c0.2,0,0.3,0,0.4-0.1c0.1,0,0.1-0.1,0.1-0.2c0-0.1,0-0.2,0-0.2
	c0,0-0.1-0.1-0.3-0.1h-0.1L34.6,26.5L34.6,26.5z M34.5,26.7l-0.2,0.8h-0.3l0.4-1.7h0.4c0.1,0,0.2,0,0.3,0c0.1,0,0.1,0,0.1,0.1
	c0,0,0.1,0.1,0.1,0.2c0,0.1,0,0.1,0,0.2c0,0.1-0.1,0.2-0.2,0.3c-0.1,0.1-0.2,0.1-0.3,0.1l0.4,0.8H35L34.5,26.7L34.5,26.7L34.5,26.7z
	 M32.9,27.5l0.4-1.7h0.9L34.2,26h-0.7l-0.1,0.4h0.7L34,26.7h-0.7l-0.1,0.6h0.7l-0.1,0.3L32.9,27.5L32.9,27.5z M32.6,26l-0.4,1.5
	h-0.3l0.4-1.5h-0.4l0.1-0.2h1.2L33,26H32.6L32.6,26z M29.8,27.5l0.4-1.8l0.8,1.1c0,0,0,0.1,0.1,0.1s0,0.1,0.1,0.1l0.3-1.2h0.3
	l-0.4,1.8l-0.8-1.1c0,0,0-0.1-0.1-0.1c0,0,0-0.1-0.1-0.1L30,27.5L29.8,27.5L29.8,27.5L29.8,27.5z M29.1,27.5l0.4-1.7h0.3l-0.4,1.7
	H29.1z M27.1,27.2l0.2-0.1c0,0.1,0,0.1,0.1,0.2c0,0,0.1,0.1,0.2,0.1c0.1,0,0.2,0,0.2-0.1c0.1,0,0.1-0.1,0.1-0.2c0-0.1,0-0.2-0.2-0.3
	c0,0,0,0,0,0c-0.2-0.1-0.3-0.2-0.3-0.3c0-0.1-0.1-0.2,0-0.3c0-0.1,0.1-0.3,0.2-0.3c0.1-0.1,0.2-0.1,0.4-0.1c0.1,0,0.2,0,0.3,0.1
	c0.1,0,0.1,0.1,0.1,0.2l-0.2,0.1c0-0.1,0-0.1-0.1-0.1c0,0-0.1,0-0.1,0c-0.1,0-0.1,0-0.2,0.1c-0.1,0-0.1,0.1-0.1,0.2
	c0,0.1,0,0.2,0.2,0.3c0,0,0,0,0,0c0.1,0.1,0.2,0.2,0.3,0.2c0,0.1,0.1,0.2,0,0.3c0,0.2-0.1,0.3-0.2,0.4c-0.1,0.1-0.3,0.1-0.4,0.1
	c-0.1,0-0.3,0-0.3-0.1C27.1,27.4,27.1,27.3,27.1,27.2L27.1,27.2z M26.8,26l-0.4,1.5h-0.3l0.4-1.5h-0.4l0.1-0.2h1.2L27.2,26H26.8z
	 M24,27.5l0.4-1.8l0.8,1.1c0,0,0,0.1,0.1,0.1c0,0,0,0.1,0.1,0.1l0.3-1.2h0.3l-0.4,1.8l-0.8-1.1c0,0,0-0.1-0.1-0.1c0,0,0-0.1-0.1-0.1
	l-0.3,1.2L24,27.5L24,27.5L24,27.5z M22.7,27.5l0.4-1.7h0.9L24,26h-0.7l-0.1,0.4h0.7l-0.1,0.2h-0.7l-0.1,0.6h0.7l-0.1,0.3L22.7,27.5
	L22.7,27.5z M22.3,26.7c0,0,0-0.1,0-0.1c0-0.1,0-0.1,0-0.1c0,0,0,0.1-0.1,0.1c0,0,0,0.1-0.1,0.1l-0.7,0.9l-0.2-0.9c0,0,0-0.1,0-0.1
	c0,0,0-0.1,0-0.1c0,0,0,0.1,0,0.1c0,0,0,0.1-0.1,0.1l-0.4,0.8h-0.3l0.8-1.8l0.2,1.1c0,0,0,0,0,0.1c0,0,0,0.1,0,0.2
	c0-0.1,0.1-0.1,0.1-0.2c0,0,0,0,0,0l0.7-1.1l0,1.8h-0.3L22.3,26.7L22.3,26.7z M19.7,27.5l0.2-0.8l-0.3-0.9h0.3l0.2,0.6
	c0,0,0,0,0,0.1c0,0,0,0.1,0,0.1c0,0,0-0.1,0.1-0.1c0,0,0,0,0.1-0.1l0.5-0.6h0.3l-0.8,0.9l-0.2,0.8L19.7,27.5L19.7,27.5L19.7,27.5z
	 M18.4,26.8h0.5l-0.1-0.4c0,0,0-0.1,0-0.1c0,0,0-0.1,0-0.1c0,0,0,0.1-0.1,0.1c0,0,0,0.1-0.1,0.1L18.4,26.8L18.4,26.8z M19,27.5
	l-0.1-0.4h-0.7l-0.3,0.4h-0.3l1.2-1.8l0.4,1.8H19z M17.3,26.5L17.3,26.5c0.2,0,0.3,0,0.4-0.1c0.1,0,0.1-0.1,0.1-0.2
	c0-0.1,0-0.2,0-0.2c0,0-0.1-0.1-0.3-0.1h-0.1L17.3,26.5L17.3,26.5z M17.2,26.7L17,27.5h-0.3l0.4-1.7h0.4c0.1,0,0.2,0,0.3,0
	c0.1,0,0.1,0,0.1,0.1c0,0,0.1,0.1,0.1,0.2c0,0.1,0,0.1,0,0.2c0,0.1-0.1,0.2-0.1,0.2c0,0.1-0.1,0.1-0.2,0.2c-0.1,0-0.1,0.1-0.2,0.1
	c-0.1,0-0.2,0-0.3,0L17.2,26.7L17.2,26.7L17.2,26.7z M14.6,27.3h0.2c0.1,0,0.2,0,0.3,0c0.1,0,0.1,0,0.2-0.1c0.1-0.1,0.1-0.1,0.2-0.2
	c0.1-0.1,0.1-0.2,0.1-0.3c0-0.1,0-0.2,0-0.3c0-0.1,0-0.2-0.1-0.2c0,0-0.1-0.1-0.2-0.1c-0.1,0-0.2,0-0.3,0h-0.2L14.6,27.3L14.6,27.3z
	 M14.3,27.5l0.4-1.7h0.4c0.2,0,0.4,0,0.5,0c0.1,0,0.2,0.1,0.2,0.1c0.1,0.1,0.1,0.2,0.2,0.3c0,0.1,0,0.3,0,0.4c0,0.2-0.1,0.3-0.2,0.4
	c-0.1,0.1-0.2,0.2-0.3,0.3c-0.1,0.1-0.2,0.1-0.3,0.1c-0.1,0-0.2,0-0.4,0L14.3,27.5L14.3,27.5L14.3,27.5z M13,27.5l0.4-1.7h0.9
	L14.3,26h-0.7l-0.1,0.4h0.7l-0.1,0.2h-0.7l-0.1,0.6H14L14,27.5L13,27.5L13,27.5z M12.4,27.5l0.4-1.7h0.3l-0.4,1.7H12.4L12.4,27.5z
	 M11.1,27.5l0.4-1.7h0.9L12.4,26h-0.7l-0.1,0.4h0.7l-0.1,0.2h-0.7l-0.2,0.8L11.1,27.5L11.1,27.5L11.1,27.5z M10.5,27.5l0.4-1.7h0.3
	l-0.4,1.7H10.5L10.5,27.5z M8.6,27.5L9,25.7l0.8,1.1c0,0,0,0.1,0.1,0.1c0,0,0,0.1,0.1,0.1l0.3-1.2h0.3l-0.4,1.8l-0.8-1.1
	c0,0,0-0.1-0.1-0.1c0,0,0-0.1-0.1-0.1l-0.3,1.2L8.6,27.5L8.6,27.5L8.6,27.5z"/>
<path class="st5" d="M34.8,24.3h-1.9l2.6-9.5h1.9L34.8,24.3z M19.1,23.7c-0.1,0.4-0.4,0.6-0.8,0.6H8.6c-0.3,0-0.5-0.1-0.6-0.3
	c-0.1-0.2-0.2-0.4-0.1-0.7l2.4-8.5h1.9l-2.1,7.6h7.5l2.1-7.6h1.9L19.1,23.7L19.1,23.7z M33.8,15.1c-0.1-0.2-0.3-0.3-0.6-0.3H22.9
	l-0.5,1.9h9.4l-0.5,2h-7.5v0h-1.9l-1.6,5.6h1.9l1-3.8h8.5c0.3,0,0.5-0.1,0.7-0.3c0.2-0.2,0.4-0.4,0.5-0.7l1-3.8
	C34,15.5,33.9,15.3,33.8,15.1L33.8,15.1z"/>
<path class="st6" d="M40.7,14.8l2.4,4.7l-5,4.7l0.6-2.1l2.7-2.6L40.1,17L40.7,14.8z"/>
<path class="st7" d="M39,14.8l2.4,4.7l-5,4.7L39,14.8z"/>
<path class="st8" d="M5.3,6.7h39.4c1.3,0,2.4,0.5,3.2,1.3c0.8,0.8,1.3,2,1.3,3.2v19.9c0,1.3-0.5,2.4-1.3,3.2c-0.8,0.8-2,1.3-3.2,1.3
	H5.3c-1.3,0-2.4-0.5-3.2-1.3c-0.8-0.8-1.3-2-1.3-3.2V11.3C0.7,10,1.2,8.9,2.1,8S4,6.7,5.3,6.7L5.3,6.7z M44.7,8.3H5.3
	c-0.8,0-1.6,0.3-2.1,0.9s-0.9,1.3-0.9,2.1v19.9c0,0.8,0.3,1.6,0.9,2.1c0.5,0.5,1.3,0.9,2.1,0.9h39.4c0.8,0,1.6-0.3,2.1-0.9
	c0.5-0.5,0.9-1.3,0.9-2.1V11.3c0-0.8-0.3-1.6-0.9-2.1C46.3,8.6,45.5,8.3,44.7,8.3L44.7,8.3z"/>
</svg>
