<?xml version="1.0" encoding="utf-8"?>
<!-- Generator: Adobe Illustrator 25.4.1, SVG Export Plug-In . SVG Version: 6.00 Build 0)  -->
<svg version="1.1" id="Layer_1" xmlns="http://www.w3.org/2000/svg" xmlns:xlink="http://www.w3.org/1999/xlink" x="0px" y="0px"
	 viewBox="0 0 24 24" style="enable-background:new 0 0 24 24;" xml:space="preserve">
<style type="text/css">
	.st0{display:none;}
	.st1{display:inline;}
	.st2{fill:#F66569;stroke:#F66569;stroke-width:0.2078;stroke-miterlimit:10;}
</style>
<g id="_01_align_center" class="st0">
	<path class="st1" d="M18,6c0-3.3-2.7-6-6-6S6,2.7,6,6H0v15c0,1.7,1.3,3,3,3h18c1.7,0,3-1.3,3-3V6H18z M12,2c2.2,0,4,1.8,4,4H8
		C8,3.8,9.8,2,12,2z M22,21c0,0.6-0.4,1-1,1H3c-0.6,0-1-0.4-1-1V8h4v2h2V8h8v2h2V8h4V21z"/>
</g>
<g id="SVGRepo_iconCarrier">
	<g id="XMLID_468_">
		<path id="XMLID_469_" class="st2" d="M17.5,13.6c0,0-1.7-0.9-2-1c-0.1,0-0.3-0.1-0.4-0.1c-0.2,0-0.4,0.1-0.6,0.3
			c-0.2,0.3-0.7,0.9-0.8,1c0,0,0,0.1-0.1,0.1c0,0-0.3-0.1-0.4-0.1c-1.8-0.8-3.2-2.7-3.4-3c0,0,0-0.1,0-0.1c0,0,0.1-0.1,0.1-0.1
			c0.1-0.1,0.2-0.2,0.3-0.3c0-0.1,0.1-0.1,0.1-0.2c0.1-0.2,0.2-0.3,0.3-0.4l0-0.1c0.2-0.4,0-0.6,0-0.7c0-0.1-0.8-1.8-0.8-2
			C9.7,6.5,9.4,6.3,9.1,6.3c0,0,0,0-0.1,0c-0.2,0-1,0.1-1.4,0.4C7.1,6.9,6.4,7.7,6.4,9.2c0,1.3,0.8,2.5,1.2,3c0,0,0,0,0,0.1
			c1.3,2,3,3.4,4.7,4.1c1.6,0.7,2.4,0.7,2.9,0.7c0,0,0,0,0,0c0.2,0,0.3,0,0.5,0l0.1,0c0.6-0.1,1.8-0.7,2.1-1.5
			c0.2-0.6,0.3-1.3,0.1-1.5C17.9,13.8,17.8,13.8,17.5,13.6z"/>
		<path id="XMLID_470_" class="st2" d="M12.2,0.3C5.9,0.3,0.7,5.4,0.7,11.6c0,2,0.5,4,1.6,5.7l-2,5.8c0,0.1,0,0.2,0.1,0.3
			c0.1,0.1,0.1,0.1,0.2,0.1c0,0,0.1,0,0.1,0l6-1.9c1.7,0.9,3.5,1.3,5.4,1.3c6.3,0,11.4-5.1,11.4-11.3C23.6,5.4,18.5,0.3,12.2,0.3z
			 M12.2,20.6c-1.8,0-3.5-0.5-5-1.5c0,0-0.1,0-0.2,0c0,0-0.1,0-0.1,0l-3,1l1-2.9c0-0.1,0-0.2,0-0.3c-1.1-1.5-1.7-3.4-1.7-5.3
			c0-4.9,4.1-9,9-9c5,0,9,4,9,9C21.2,16.6,17.2,20.6,12.2,20.6z"/>
	</g>
</g>
</svg>
