<?xml version="1.0" encoding="UTF-8"?>
<!DOCTYPE svg PUBLIC "-//W3C//DTD SVG 1.1//EN" "http://www.w3.org/Graphics/SVG/1.1/DTD/svg11.dtd">
<svg xmlns="http://www.w3.org/2000/svg" version="1.1" width="180px" height="180px" style="shape-rendering:geometricPrecision; text-rendering:geometricPrecision; image-rendering:optimizeQuality; fill-rule:evenodd; clip-rule:evenodd" xmlns:xlink="http://www.w3.org/1999/xlink">
<g><path style="opacity:0.997" fill="#f46669" d="M 22.5,76.5 C 26.1678,67.4853 30.1678,58.4853 34.5,49.5C 50.94,27.4583 72.94,18.2917 100.5,22C 127.657,27.4984 145.824,43.3317 155,69.5C 163.204,107.588 150.037,135.421 115.5,153C 75.1971,165.09 45.3638,152.59 26,115.5C 21.5739,102.784 20.4072,89.7844 22.5,76.5 Z"/></g>
<g><path style="opacity:1" fill="#1f1c1e" d="M 85.5,46.5 C 88.2148,47.0483 90.2148,48.5483 91.5,51C 87.7541,57.1553 83.7541,63.1553 79.5,69C 84.174,66.4525 88.5073,63.1192 92.5,59C 95.8691,58.7073 97.7025,60.2073 98,63.5C 93.7395,67.049 89.5729,70.7157 85.5,74.5C 86.79,75.4077 88.1233,75.241 89.5,74C 108.914,72.7392 115.414,81.2392 109,99.5C 102.15,110.544 94.8169,121.211 87,131.5C 84.7856,131.154 83.2856,129.988 82.5,128C 86.1989,121.749 89.6989,115.582 93,109.5C 88.8672,112.631 85.0338,116.131 81.5,120C 78.1309,120.293 76.2975,118.793 76,115.5C 80.3404,111.991 84.5071,108.324 88.5,104.5C 88,104.167 87.5,103.833 87,103.5C 72.7302,109.612 63.8968,104.946 60.5,89.5C 60.8417,87.1332 61.3417,84.7999 62,82.5C 70.103,70.6139 77.9364,58.6139 85.5,46.5 Z"/></g>
<g><path style="opacity:0.192" fill="#f8888b" d="M 34.5,49.5 C 30.1678,58.4853 26.1678,67.4853 22.5,76.5C 24.0877,66.333 28.0877,57.333 34.5,49.5 Z"/></g>
<g><path style="opacity:1" fill="#e86165" d="M 80.5,96.5 C 78.3926,97.4682 76.0593,97.8016 73.5,97.5C 68.2175,92.3776 68.2175,87.2109 73.5,82C 77.8288,80.8485 81.6621,81.6819 85,84.5C 85.4828,85.448 85.6495,86.448 85.5,87.5C 83.5328,87.7394 81.6995,87.4061 80,86.5C 79.3412,89.8881 79.5078,93.2214 80.5,96.5 Z"/></g>
<g><path style="opacity:1" fill="#e76064" d="M 93.5,81.5 C 105.423,82.8455 107.423,88.0122 99.5,97C 96.0357,97.8166 92.7024,97.4833 89.5,96C 87.5794,94.7592 87.246,93.2592 88.5,91.5C 90.4086,92.3482 92.4086,92.6816 94.5,92.5C 94.577,88.7852 94.2436,85.1185 93.5,81.5 Z"/></g>
<g><path style="opacity:1" fill="#844144" d="M 80.5,96.5 C 81.0431,96.56 81.3764,96.8933 81.5,97.5C 78.6908,98.8003 76.0241,98.8003 73.5,97.5C 76.0593,97.8016 78.3926,97.4682 80.5,96.5 Z"/></g>
</svg>
