<?xml version="1.0" encoding="utf-8"?>
<!-- Generator: Adobe Illustrator 25.4.1, SVG Export Plug-In . SVG Version: 6.00 Build 0)  -->
<svg version="1.1" id="Layer_1" xmlns="http://www.w3.org/2000/svg" xmlns:xlink="http://www.w3.org/1999/xlink" x="0px" y="0px"
	 viewBox="0 0 500 500" style="enable-background:new 0 0 500 500;" xml:space="preserve">
<style type="text/css">
	.st0{fill:#EBEBEB;}
	.st1{fill:#E0E0E0;}
	.st2{fill:#FAFAFA;}
	.st3{fill:#F0F0F0;}
	.st4{fill:#F5F5F5;}
	.st5{fill:#F66569;}
	.st6{opacity:0.4;fill:#FFFFFF;enable-background:new    ;}
	.st7{opacity:0.7;fill:#FFFFFF;enable-background:new    ;}
	.st8{opacity:0.2;enable-background:new    ;}
	.st9{opacity:0.5;fill:#FFFFFF;enable-background:new    ;}
	.st10{fill:#263238;}
	.st11{opacity:0.2;}
	.st12{fill:#FFFFFF;}
	.st13{opacity:0.2;fill:#FFFFFF;enable-background:new    ;}
</style>
<g id="freepik--background-complete--inject-3">
	<rect y="382.4" class="st0" width="500" height="0.2"/>
	<rect x="416.8" y="398.5" class="st0" width="33.1" height="0.2"/>
	<rect x="322.5" y="401.2" class="st0" width="8.7" height="0.2"/>
	<rect x="396.6" y="389.2" class="st0" width="19.2" height="0.2"/>
	<rect x="52.5" y="390.9" class="st0" width="43.2" height="0.2"/>
	<rect x="104.6" y="390.9" class="st0" width="6.3" height="0.2"/>
	<rect x="131.5" y="395.1" class="st0" width="93.7" height="0.2"/>
	<path class="st0" d="M237,337.8H43.9c-3.1,0-5.7-2.6-5.7-5.7V60.7c0-3.1,2.6-5.7,5.7-5.7H237c3.2,0,5.7,2.6,5.7,5.7c0,0,0,0,0,0
		v271.4C242.7,335.2,240.2,337.8,237,337.8z M43.9,55.2c-3,0-5.5,2.4-5.5,5.5v271.4c0,3,2.4,5.5,5.5,5.5H237c3,0,5.5-2.4,5.5-5.5
		V60.7c0-3-2.4-5.5-5.5-5.5H43.9z"/>
	<path class="st0" d="M453.3,337.8H260.2c-3.2,0-5.7-2.6-5.7-5.7V60.7c0-3.1,2.6-5.7,5.7-5.7h193.1c3.1,0,5.7,2.5,5.7,5.7v271.4
		C459,335.2,456.5,337.8,453.3,337.8z M260.2,55.2c-3,0-5.5,2.4-5.5,5.5v271.4c0,3,2.4,5.5,5.5,5.5h193.1c3,0,5.5-2.4,5.5-5.5V60.7
		c0-3-2.4-5.5-5.5-5.5H260.2z"/>
	<polygon class="st1" points="406.9,148.5 373.6,129.2 348,129.2 314.2,147.6 314.2,272.9 406.9,272.9 	"/>
	<path class="st2" d="M313.3,148.5l1-0.9c12.3-11.9,28.7-18.5,45.8-18.4l0,0c17.1,0,33.5,6.6,45.8,18.4l1,0.9v124.4h-93.6V148.5z
		 M400.7,151.2c-23-21-58.2-21-81.2,0v115.5h81.2V151.2z"/>
	<polygon class="st3" points="362.4,267.4 357.7,267.4 357.7,225.9 318.3,225.9 318.3,221.2 357.7,221.2 357.7,178.7 318.3,178.7 
		318.3,174 357.7,174 357.7,134.6 362.4,134.6 362.4,174 401.8,174 401.8,178.7 362.4,178.7 362.4,221.2 401.8,221.2 401.8,225.9 
		362.4,225.9 	"/>
	<path class="st3" d="M310.2,147.3l0.9-0.9c27.1-27,70.9-27,98,0l0.9,0.9V276h-99.8V147.3z M403.8,149.8
		c-24.4-23.4-62.9-23.4-87.4,0v120h87.4V149.8z"/>
	<polygon class="st1" points="186.7,148.5 153.5,129.2 127.9,129.2 94.1,147.6 94.1,272.9 186.7,272.9 	"/>
	<path class="st2" d="M93.2,148.5l0.9-0.9c12.3-11.9,28.7-18.5,45.8-18.4l0,0c17.1,0,33.5,6.6,45.8,18.4l1,0.9v124.4H93.2V148.5z
		 M180.5,151.2c-23-21-58.2-21-81.2,0v115.5h81.2V151.2z"/>
	<polygon class="st3" points="142.3,267.4 137.6,267.4 137.6,225.9 98.2,225.9 98.2,221.2 137.6,221.2 137.6,178.7 98.2,178.7 
		98.2,174 137.6,174 137.6,134.6 142.3,134.6 142.3,174 181.7,174 181.7,178.7 142.3,178.7 142.3,221.2 181.7,221.2 181.7,225.9 
		142.3,225.9 	"/>
	<path class="st3" d="M90,147.3l0.9-0.9c27.1-27,70.9-27,98,0l0.9,0.9V276H90V147.3z M183.6,149.8c-24.4-23.4-62.9-23.4-87.4,0v120
		h87.4V149.8z"/>
	<rect x="74.8" y="374.5" class="st4" width="21.6" height="8.5"/>
	<rect x="63" y="374.5" class="st4" width="9.9" height="8.5"/>
	<rect x="98.3" y="374.5" class="st4" width="21.6" height="8.5"/>
	<rect x="121.8" y="374.5" class="st4" width="21.6" height="8.5"/>
	<rect x="145.3" y="374.5" class="st4" width="21.6" height="8.5"/>
	<rect x="168.7" y="374.5" class="st4" width="21.6" height="8.5"/>
	<rect x="192.2" y="374.5" class="st4" width="21.6" height="8.5"/>
	<rect x="215.7" y="374.5" class="st4" width="21.6" height="8.5"/>
	<rect x="239.2" y="374.5" class="st4" width="21.6" height="8.5"/>
	<rect x="262.7" y="374.5" class="st4" width="21.6" height="8.5"/>
	<rect x="286.2" y="374.5" class="st4" width="21.6" height="8.5"/>
	<rect x="309.7" y="374.5" class="st4" width="21.6" height="8.5"/>
	<rect x="333.1" y="374.5" class="st4" width="21.6" height="8.5"/>
	<rect x="356.6" y="374.5" class="st4" width="21.6" height="8.5"/>
	<rect x="380.1" y="374.5" class="st4" width="21.6" height="8.5"/>
	<rect x="403.6" y="374.5" class="st4" width="21.6" height="8.5"/>
	<rect x="427.1" y="374.5" class="st4" width="9.9" height="8.5"/>
	<rect x="63" y="363.8" class="st4" width="21.6" height="8.5"/>
	<rect x="86.5" y="363.8" class="st4" width="21.6" height="8.5"/>
	<rect x="110" y="363.8" class="st4" width="21.6" height="8.5"/>
	<rect x="133.5" y="363.8" class="st4" width="21.6" height="8.5"/>
	<rect x="157" y="363.8" class="st4" width="21.6" height="8.5"/>
	<rect x="180.5" y="363.8" class="st4" width="21.6" height="8.5"/>
	<rect x="204" y="363.8" class="st4" width="21.6" height="8.5"/>
	<rect x="227.5" y="363.8" class="st4" width="21.6" height="8.5"/>
	<rect x="250.9" y="363.8" class="st4" width="21.6" height="8.5"/>
	<rect x="274.4" y="363.8" class="st4" width="21.6" height="8.5"/>
	<rect x="297.9" y="363.8" class="st4" width="21.6" height="8.5"/>
	<rect x="321.4" y="363.8" class="st4" width="21.6" height="8.5"/>
	<rect x="344.9" y="363.8" class="st4" width="21.6" height="8.5"/>
	<rect x="368.4" y="363.8" class="st4" width="21.6" height="8.5"/>
	<rect x="391.9" y="363.8" class="st4" width="21.6" height="8.5"/>
	<rect x="415.4" y="363.8" class="st4" width="21.6" height="8.5"/>
	<rect x="74.8" y="353.1" class="st4" width="21.6" height="8.5"/>
	<rect x="63" y="353.1" class="st4" width="9.9" height="8.5"/>
	<rect x="98.3" y="353.1" class="st4" width="21.6" height="8.5"/>
	<rect x="121.8" y="353.1" class="st4" width="21.6" height="8.5"/>
	<rect x="145.3" y="353.1" class="st4" width="21.6" height="8.5"/>
	<rect x="168.7" y="353.1" class="st4" width="21.6" height="8.5"/>
	<rect x="192.2" y="353.1" class="st4" width="21.6" height="8.5"/>
	<rect x="215.7" y="353.1" class="st4" width="21.6" height="8.5"/>
	<rect x="239.2" y="353.1" class="st4" width="21.6" height="8.5"/>
	<rect x="262.7" y="353.1" class="st4" width="21.6" height="8.5"/>
	<rect x="286.2" y="353.1" class="st4" width="21.6" height="8.5"/>
	<rect x="309.7" y="353.1" class="st4" width="21.6" height="8.5"/>
	<rect x="333.1" y="353.1" class="st4" width="21.6" height="8.5"/>
	<rect x="356.6" y="353.1" class="st4" width="21.6" height="8.5"/>
	<rect x="380.1" y="353.1" class="st4" width="21.6" height="8.5"/>
	<rect x="403.6" y="353.1" class="st4" width="21.6" height="8.5"/>
	<rect x="427.1" y="353.1" class="st4" width="9.9" height="8.5"/>
	<rect x="63" y="342.4" class="st4" width="21.6" height="8.5"/>
	<rect x="86.5" y="342.4" class="st4" width="21.6" height="8.5"/>
	<rect x="110" y="342.4" class="st4" width="21.6" height="8.5"/>
	<rect x="133.5" y="342.4" class="st4" width="21.6" height="8.5"/>
	<rect x="157" y="342.4" class="st4" width="21.6" height="8.5"/>
	<rect x="180.5" y="342.4" class="st4" width="21.6" height="8.5"/>
	<rect x="204" y="342.4" class="st4" width="21.6" height="8.5"/>
	<rect x="227.5" y="342.4" class="st4" width="21.6" height="8.5"/>
	<rect x="250.9" y="342.4" class="st4" width="21.6" height="8.5"/>
	<rect x="274.4" y="342.4" class="st4" width="21.6" height="8.5"/>
	<rect x="297.9" y="342.4" class="st4" width="21.6" height="8.5"/>
	<rect x="321.4" y="342.4" class="st4" width="21.6" height="8.5"/>
	<rect x="344.9" y="342.4" class="st4" width="21.6" height="8.5"/>
	<rect x="368.4" y="342.4" class="st4" width="21.6" height="8.5"/>
	<rect x="391.9" y="342.4" class="st4" width="21.6" height="8.5"/>
	<rect x="415.4" y="342.4" class="st4" width="21.6" height="8.5"/>
	<rect x="74.8" y="331.7" class="st4" width="21.6" height="8.5"/>
	<rect x="63" y="331.7" class="st4" width="9.9" height="8.5"/>
	<rect x="98.3" y="331.7" class="st4" width="21.6" height="8.5"/>
	<rect x="121.8" y="331.7" class="st4" width="21.6" height="8.5"/>
	<rect x="145.3" y="331.7" class="st4" width="21.6" height="8.5"/>
	<rect x="168.7" y="331.7" class="st4" width="21.6" height="8.5"/>
	<rect x="192.2" y="331.7" class="st4" width="21.6" height="8.5"/>
	<rect x="215.7" y="331.7" class="st4" width="21.6" height="8.5"/>
	<rect x="239.2" y="331.7" class="st4" width="21.6" height="8.5"/>
	<rect x="262.7" y="331.7" class="st4" width="21.6" height="8.5"/>
	<rect x="286.2" y="331.7" class="st4" width="21.6" height="8.5"/>
	<rect x="309.7" y="331.7" class="st4" width="21.6" height="8.5"/>
	<rect x="333.1" y="331.7" class="st4" width="21.6" height="8.5"/>
	<rect x="356.6" y="331.7" class="st4" width="21.6" height="8.5"/>
	<rect x="380.1" y="331.7" class="st4" width="21.6" height="8.5"/>
	<rect x="403.6" y="331.7" class="st4" width="21.6" height="8.5"/>
	<rect x="427.1" y="331.7" class="st4" width="9.9" height="8.5"/>
	<rect x="63" y="321" class="st4" width="21.6" height="8.5"/>
	<rect x="86.5" y="321" class="st4" width="21.6" height="8.5"/>
	<rect x="110" y="321" class="st4" width="21.6" height="8.5"/>
	<rect x="133.5" y="321" class="st4" width="21.6" height="8.5"/>
	<rect x="157" y="321" class="st4" width="21.6" height="8.5"/>
	<rect x="180.5" y="321" class="st4" width="21.6" height="8.5"/>
	<rect x="204" y="321" class="st4" width="21.6" height="8.5"/>
	<rect x="227.5" y="321" class="st4" width="21.6" height="8.5"/>
	<rect x="250.9" y="321" class="st4" width="21.6" height="8.5"/>
	<rect x="274.4" y="321" class="st4" width="21.6" height="8.5"/>
	<rect x="297.9" y="321" class="st4" width="21.6" height="8.5"/>
	<rect x="321.4" y="321" class="st4" width="21.6" height="8.5"/>
	<rect x="344.9" y="321" class="st4" width="21.6" height="8.5"/>
	<rect x="368.4" y="321" class="st4" width="21.6" height="8.5"/>
	<rect x="391.9" y="321" class="st4" width="21.6" height="8.5"/>
	<rect x="415.4" y="321" class="st4" width="21.6" height="8.5"/>
</g>
<g id="freepik--Shadow--inject-3">
	<ellipse id="freepik--path--inject-3" class="st4" cx="250" cy="416.2" rx="193.9" ry="11.3"/>
</g>
<g id="freepik--Clock--inject-3">
	<circle class="st5" cx="194.3" cy="234.8" r="105.3"/>
	<circle class="st6" cx="194.3" cy="234.8" r="99.3"/>
	<path class="st7" d="M291.2,234.8c0,53.6-43.4,97-96.9,97.1s-97-43.4-97.1-96.9c0-53.6,43.4-97,96.9-97.1
		c16.6,0,32.8,4.2,47.3,12.3C272.2,167.3,291.2,199.7,291.2,234.8z"/>
	<path class="st8" d="M194.3,129.5C136.1,129.5,89,176.7,89,234.9c0,58.2,47.2,105.3,105.4,105.3c58.2,0,105.3-47.2,105.3-105.3
		C299.7,176.7,252.5,129.5,194.3,129.5C194.3,129.5,194.3,129.5,194.3,129.5z M194.3,338.1c-57,0-103.2-46.2-103.2-103.2
		s46.2-103.2,103.2-103.2s103.2,46.2,103.2,103.2c0,0,0,0,0,0C297.5,291.9,251.3,338.1,194.3,338.1
		C194.3,338.1,194.3,338.1,194.3,338.1z"/>
	<path class="st5" d="M241.5,150.2l-47.2,85.4v-97.7C210.8,137.9,227.1,142.1,241.5,150.2z"/>
	<path class="st9" d="M241.5,150.2l-47.2,85.4v-97.7C210.8,137.9,227.1,142.1,241.5,150.2z"/>
	<path class="st10" d="M194.3,238.4c-0.1,0-0.3,0-0.4,0c-2-0.2-3.4-2-3.2-3.9l6.3-60.6c0.2-2,1.9-3.4,3.9-3.3c2,0.2,3.4,1.9,3.3,3.9
		c0,0,0,0.1,0,0.1l-6.3,60.6C197.7,237,196.2,238.4,194.3,238.4z"/>
	<path class="st5" d="M199.4,187.5h-0.1c-0.7-0.1-1.1-0.7-1.1-1.3c0,0,0,0,0,0l1.2-12c0.1-0.7,0.7-1.1,1.3-1.1
		c0.7,0.1,1.1,0.7,1.1,1.3l0,0l-1.2,12C200.5,187,200,187.5,199.4,187.5z"/>
	<g class="st11">
		<path class="st12" d="M194.3,238.4c-0.1,0-0.3,0-0.4,0c-2-0.2-3.4-2-3.2-3.9l6.3-60.6c0.2-2,1.9-3.4,3.9-3.3
			c2,0.2,3.4,1.9,3.3,3.9c0,0,0,0.1,0,0.1l-6.3,60.6C197.7,237,196.2,238.4,194.3,238.4z"/>
		<path class="st12" d="M199.4,187.5h-0.1c-0.7-0.1-1.1-0.7-1.1-1.3c0,0,0,0,0,0l1.2-12c0.1-0.7,0.7-1.1,1.3-1.1
			c0.7,0.1,1.1,0.7,1.1,1.3l0,0l-1.2,12C200.5,187,200,187.5,199.4,187.5z"/>
	</g>
	<path class="st10" d="M194.3,154.4c-0.3,0-0.5-0.2-0.5-0.5v-11.1c0-0.3,0.2-0.5,0.5-0.5c0.3,0,0.5,0.2,0.5,0.5v11.1
		C194.8,154.2,194.6,154.4,194.3,154.4z"/>
	<path class="st10" d="M194.3,327.4c-0.3,0-0.5-0.2-0.5-0.5v-11.1c0-0.3,0.2-0.5,0.5-0.5c0.3,0,0.5,0.2,0.5,0.5v11.1
		C194.8,327.2,194.6,327.4,194.3,327.4z"/>
	<path class="st10" d="M286.4,235.3h-11.1c-0.3,0-0.5-0.2-0.5-0.5s0.2-0.5,0.5-0.5h11.1c0.3,0,0.5,0.2,0.5,0.5
		S286.6,235.3,286.4,235.3L286.4,235.3z"/>
	<path class="st10" d="M113.4,235.3h-11.1c-0.3,0-0.5-0.2-0.5-0.5s0.2-0.5,0.5-0.5h11.1c0.3,0,0.5,0.2,0.5,0.5
		S113.6,235.3,113.4,235.3z"/>
	<path class="st10" d="M154.9,164.6c-0.2,0-0.3-0.1-0.4-0.3l-5.4-9.7c-0.1-0.2,0-0.5,0.2-0.7c0.2-0.1,0.5,0,0.7,0.2l5.4,9.7
		c0.1,0.2,0,0.5-0.2,0.7C155.1,164.6,155,164.6,154.9,164.6z"/>
	<path class="st10" d="M239.1,315.7c-0.2,0-0.3-0.1-0.4-0.3l-5.4-9.7c-0.1-0.2,0-0.5,0.2-0.7c0.2-0.1,0.5,0,0.7,0.2l5.4,9.7
		c0.1,0.2,0,0.5-0.2,0.7c0,0,0,0,0,0C239.3,315.7,239.2,315.7,239.1,315.7z"/>
	<path class="st10" d="M113.9,280.2c-0.2,0-0.4-0.1-0.4-0.3c-0.1-0.2-0.1-0.5,0.2-0.7c0,0,0,0,0,0l9.7-5.4c0.2-0.1,0.5,0,0.7,0.2
		c0.1,0.2,0,0.5-0.2,0.7l-9.7,5.4C114.1,280.1,114,280.2,113.9,280.2z"/>
	<path class="st10" d="M265,195.9c-0.2,0-0.3-0.1-0.4-0.3c-0.1-0.2,0-0.5,0.2-0.7l9.7-5.4c0.2-0.1,0.5,0,0.7,0.2
		c0.1,0.2,0,0.5-0.2,0.7l-9.7,5.4C265.2,195.9,265.1,195.9,265,195.9z"/>
	<path class="st10" d="M233.7,164.6c-0.1,0-0.2,0-0.2-0.1c-0.2-0.1-0.3-0.4-0.2-0.7l5.4-9.7c0.1-0.2,0.4-0.3,0.7-0.2
		c0.2,0.1,0.3,0.4,0.2,0.7c0,0,0,0,0,0l-5.4,9.7C234.1,164.5,233.9,164.6,233.7,164.6z"/>
	<path class="st10" d="M149.5,315.7c-0.1,0-0.2,0-0.2-0.1c-0.2-0.1-0.3-0.4-0.2-0.7c0,0,0,0,0,0l5.4-9.7c0.1-0.2,0.5-0.3,0.7-0.2
		c0.2,0.1,0.3,0.4,0.2,0.6l-5.4,9.7C149.8,315.6,149.7,315.7,149.5,315.7z"/>
	<path class="st10" d="M274.7,280.2c-0.1,0-0.2,0-0.2-0.1l-9.7-5.4c-0.2-0.1-0.3-0.4-0.2-0.7c0.1-0.2,0.4-0.3,0.7-0.2c0,0,0,0,0,0
		l9.7,5.4c0.2,0.1,0.3,0.4,0.2,0.7C275.1,280.1,274.9,280.2,274.7,280.2z"/>
	<path class="st10" d="M123.6,195.9c-0.1,0-0.2,0-0.2-0.1l-9.7-5.4c-0.2-0.1-0.3-0.5-0.2-0.7c0.1-0.2,0.4-0.3,0.6-0.2l9.7,5.4
		c0.2,0.1,0.3,0.4,0.2,0.7C124,195.8,123.8,195.9,123.6,195.9z"/>
	<path class="st10" d="M194.3,238.4c-2,0-3.6-1.6-3.6-3.6c0-0.6,0.2-1.2,0.5-1.8l36.7-66c0.9-1.8,3.1-2.4,4.9-1.5s2.4,3.1,1.5,4.9
		c0,0-0.1,0.1-0.1,0.1l-36.7,66C196.8,237.7,195.6,238.4,194.3,238.4z"/>
	<path class="st10" d="M199.7,234.8c0,3-2.4,5.4-5.4,5.4c-3,0-5.4-2.4-5.4-5.4c0-3,2.4-5.4,5.4-5.4S199.7,231.9,199.7,234.8
		L199.7,234.8z"/>
	<path class="st13" d="M194.3,237.9c-1.7,0-3-1.3-3-3s1.3-3,3-3s3,1.3,3,3l0,0C197.3,236.5,196,237.9,194.3,237.9z"/>
	<path class="st5" d="M224.7,181.5c-0.2,0-0.4-0.1-0.6-0.1c-0.6-0.3-0.8-1.1-0.5-1.6l6.4-11.4c0.3-0.6,1-0.9,1.6-0.6
		c0.6,0.3,0.9,1,0.6,1.6c0,0.1-0.1,0.1-0.1,0.2l-6.3,11.4C225.5,181.3,225.1,181.5,224.7,181.5z"/>
</g>
<g id="freepik--Plant--inject-3">
	<path class="st5" d="M121.3,389.6h-0.8c0-1.2,1-28.5,5.7-33.1s10.6-0.1,10.7,0l-0.5,0.6c-0.2-0.2-5.3-4.3-9.7,0
		S121.3,389.4,121.3,389.6z"/>
	<path class="st5" d="M121,395.1l-0.8-0.1c0-0.3,3.1-33.2-8.8-46.8l0.6-0.5C124.1,361.6,121,394.8,121,395.1z"/>
	<path class="st5" d="M121.3,391.6c-0.1-1.5-2.4-38.1,6.8-46.5l0.5,0.6c-8.9,8.2-6.5,45.5-6.5,45.9L121.3,391.6z"/>
	<path class="st5" d="M120.2,391.6c0-0.2-0.3-24.8-6.8-28.5c-1.1-0.7-2.5-0.9-3.8-0.4c-3.8,1.6-5.8,8.9-5.9,8.9l-0.8-0.2
		c0.1-0.3,2.2-7.7,6.3-9.5c1.5-0.6,3.1-0.4,4.5,0.4c6.9,4,7.2,28.2,7.2,29.2L120.2,391.6z"/>
	<path class="st5" d="M122.8,391.6c0-0.8-1.1-19.4,4.2-26.3c1.4-1.8,3-2.7,4.6-2.6c3.8,0.3,6.7,5.3,6.8,5.5l-0.7,0.4
		c0,0-2.8-4.9-6.1-5.2c-1.4-0.1-2.7,0.7-4,2.3c-5.1,6.7-4.1,25.6-4.1,25.8L122.8,391.6z"/>
	<path class="st5" d="M121.8,394.2l-0.8,0c0-0.5,3.3-44.8-2.2-52.2l0.6-0.5C125.1,349.1,121.9,392.4,121.8,394.2z"/>
	<path class="st5" d="M107.8,366.4c0,0,3.4,1.2,2.4,4.2s-11.7,7.8-11.7,7.8s-4.5-4.1-0.4-10.8S107.7,364.3,107.8,366.4z"/>
	<path class="st13" d="M107.8,366.4c0,0,3.4,1.2,2.4,4.2s-11.7,7.8-11.7,7.8s-4.5-4.1-0.4-10.8S107.7,364.3,107.8,366.4z"/>
	<path class="st5" d="M122.5,360.8c0,0-3.6-0.1-3.8,3s7.8,11.7,7.8,11.7s5.7-2.1,4.5-9.8S123.3,358.9,122.5,360.8z"/>
	<path class="st13" d="M122.5,360.8c0,0-3.6-0.1-3.8,3s7.8,11.7,7.8,11.7s5.7-2.1,4.5-9.8S123.3,358.9,122.5,360.8z"/>
	<path class="st5" d="M125.5,346c0,0-2.4-0.3-2.2-1.7s9.3-5.2,14.7,0.9c0,0-3.4,5.9-8.4,6S125.5,346,125.5,346z"/>
	<path class="st13" d="M125.5,346c0,0-2.4-0.3-2.2-1.7s9.3-5.2,14.7,0.9c0,0-3.4,5.9-8.4,6S125.5,346,125.5,346z"/>
	<path class="st5" d="M121,342.4c0,0,2.2,1,2.8-0.3s-5.1-9.4-12.9-7c0,0-0.2,6.9,4,9.5S121,342.4,121,342.4z"/>
	<path class="st13" d="M121,342.4c0,0,2.2,1,2.8-0.3s-5.1-9.4-12.9-7c0,0-0.2,6.9,4,9.5S121,342.4,121,342.4z"/>
	<path class="st5" d="M132.4,365.2c0,0-1.7-1.3,0.1-2s10.6-0.5,10.6,8.2c0,0-10.2,1.7-11.5-1.6S132.4,365.2,132.4,365.2z"/>
	<path class="st13" d="M132.4,365.2c0,0-1.7-1.3,0.1-2s10.6-0.5,10.6,8.2c0,0-10.2,1.7-11.5-1.6S132.4,365.2,132.4,365.2z"/>
	<path class="st5" d="M111.6,345.7c0,0,1.7-1.3-0.1-2s-10.6-0.5-10.6,8.2c0,0,10.2,1.7,11.5-1.6S111.6,345.7,111.6,345.7z"/>
	<path class="st13" d="M111.6,345.7c0,0,1.7-1.3-0.1-2s-10.6-0.5-10.6,8.2c0,0,10.2,1.7,11.5-1.6S111.6,345.7,111.6,345.7z"/>
	<path class="st5" d="M117,352.7c0,0,0.2-1.6-1.2-1s-5.9,5.6-1.2,10.2c0,0,6.4-4.7,5.2-7.2S117,352.7,117,352.7z"/>
	<path class="st13" d="M117,352.7c0,0,0.2-1.6-1.2-1s-5.9,5.6-1.2,10.2c0,0,6.4-4.7,5.2-7.2S117,352.7,117,352.7z"/>
	<path class="st5" d="M133.9,355c0,0-1-1.3,0.5-1.5s7.9,1.6,6.4,8c0,0-7.9-0.6-8.2-3.3S133.9,355,133.9,355z"/>
	<path class="st13" d="M133.9,355c0,0-1-1.3,0.5-1.5s7.9,1.6,6.4,8c0,0-7.9-0.6-8.2-3.3S133.9,355,133.9,355z"/>
	<polygon class="st5" points="107.2,415.6 134.3,415.6 137.2,385.9 104.2,385.9 	"/>
	<polygon class="st9" points="107.2,415.6 134.3,415.6 137.2,385.9 104.2,385.9 	"/>
	<rect x="102.8" y="382.6" class="st5" width="35.9" height="6.6"/>
	<rect x="102.8" y="382.6" class="st13" width="35.9" height="6.6"/>
</g>
</svg>
