<svg xmlns="http://www.w3.org/2000/svg" viewBox="0 0 24 24" width="24" height="24">
  <circle cx="12" cy="12" r="12" fill="#25D366"/>
  <path fill="#ffffff" d="M12 4.8a7.2 7.2 0 0 0-6.22 10.8l-1.0 3.6 3.69-.97A7.2 7.2 0 1 0 12 4.8zm0 13.1a5.9 5.9 0 0 1-3.01-.82l-.22-.13-2.19.57.59-2.14-.14-.22A5.9 5.9 0 1 1 12 17.9zm3.23-4.4c-.18-.09-1.05-.52-1.21-.58-.16-.06-.28-.09-.4.09-.12.18-.46.58-.56.69-.1.12-.2.13-.38.04-.18-.09-.74-.27-1.41-.87-.52-.46-.87-1.03-.97-1.21-.1-.18-.01-.27.08-.36.08-.08.18-.2.27-.31.09-.1.12-.18.18-.3.06-.12.03-.22-.01-.31-.05-.09-.4-.96-.55-1.31-.14-.34-.29-.3-.4-.3h-.34c-.12 0-.31.04-.47.22-.16.18-.62.6-.62 1.47s.63 1.71.72 1.83c.09.12 1.24 1.9 3.01 2.66.42.18.75.29 1.0.37.42.13.8.11 1.1.07.34-.05 1.05-.43 1.2-.84.15-.41.15-.77.1-.84-.04-.08-.16-.12-.34-.2z"/>
</svg>
